<?xml version="1.0" encoding="UTF-8" standalone="no"?>
<svg
   xmlns:dc="http://purl.org/dc/elements/1.1/"
   xmlns:cc="http://creativecommons.org/ns#"
   xmlns:rdf="http://www.w3.org/1999/02/22-rdf-syntax-ns#"
   xmlns:svg="http://www.w3.org/2000/svg"
   xmlns="http://www.w3.org/2000/svg"
   viewBox="0 0 559.46906 482.02201"
   height="482.022"
   width="559.46906"
   xml:space="preserve"
   id="svg2"
   version="1.1"><metadata
     id="metadata8"><rdf:RDF><cc:Work
         rdf:about=""><dc:format>image/svg+xml</dc:format><dc:type
           rdf:resource="http://purl.org/dc/dcmitype/StillImage" /></cc:Work></rdf:RDF></metadata><defs
     id="defs6" /><g
     transform="matrix(1.3333333,0,0,-1.3333333,-0.37760399,482.13865)"
     id="g10"><g
       transform="scale(0.1)"
       id="g12"><path
         id="path14"
         style="fill:#20201c;fill-opacity:1;fill-rule:nonzero;stroke:none"
         d="m 257.082,439.855 c 0,-17.195 -2.527,-32.582 -7.586,-46.164 -5.055,-13.582 -12.496,-25.07 -22.32,-34.461 -9.828,-9.39 -21.961,-16.542 -36.41,-21.457 -14.453,-4.91 -31.067,-7.367 -49.848,-7.367 -17.629,0 -33.449,2.203 -47.4649,6.61 -14.0156,4.406 -25.8633,11.089 -35.5429,20.047 -9.6836,8.957 -17.086,20.121 -22.2149,33.484 C 30.5625,403.914 28,419.555 28,437.469 v 170.566 c 0,1.449 0.4336,2.746 1.3008,3.903 0.8672,1.156 2.4219,2.097 4.6601,2.816 2.2383,0.723 5.1641,1.301 8.7774,1.734 3.6094,0.434 8.2344,0.649 13.8711,0.649 5.4883,0 10.039,-0.215 13.6523,-0.649 3.6133,-0.433 6.5,-1.011 8.6719,-1.734 2.1641,-0.719 3.7187,-1.66 4.6562,-2.816 C 84.5313,610.781 85,609.484 85,608.035 V 442.457 c 0,-11.125 1.3711,-20.773 4.1172,-28.937 2.7461,-8.161 6.6836,-14.918 11.8128,-20.262 5.129,-5.344 11.269,-9.356 18.422,-12.028 7.152,-2.675 15.136,-4.011 23.949,-4.011 8.957,0 16.976,1.375 24.054,4.117 7.083,2.746 13.079,6.754 17.993,12.031 4.91,5.274 8.703,11.774 11.375,19.508 2.675,7.727 4.011,16.504 4.011,26.328 v 168.832 c 0,1.449 0.434,2.746 1.301,3.903 0.867,1.156 2.383,2.097 4.551,2.816 2.168,0.723 5.094,1.301 8.777,1.734 3.684,0.434 8.274,0.649 13.762,0.649 5.492,0 10.008,-0.215 13.547,-0.649 3.539,-0.433 6.394,-1.011 8.558,-1.734 2.168,-0.719 3.684,-1.66 4.555,-2.816 0.863,-1.157 1.297,-2.454 1.297,-3.903 v -168.18" /><path
         id="path16"
         style="fill:#20201c;fill-opacity:1;fill-rule:nonzero;stroke:none"
         d="m 545.242,355.332 c 0,-3.324 -0.578,-6.289 -1.734,-8.887 -1.156,-2.601 -2.707,-4.769 -4.66,-6.504 -1.95,-1.734 -4.262,-3 -6.938,-3.793 -2.672,-0.793 -5.379,-1.191 -8.125,-1.191 h -24.273 c -5.059,0 -9.43,0.504 -13.114,1.516 -3.683,1.011 -7.078,2.855 -10.187,5.527 -3.106,2.672 -6.102,6.285 -8.992,10.836 -2.891,4.551 -6.141,10.441 -9.754,17.664 L 387.68,501.625 c -4.047,7.801 -8.164,16.215 -12.356,25.246 -4.187,9.031 -7.945,17.809 -11.269,26.332 h -0.434 c 0.578,-10.402 1.012,-20.769 1.301,-31.098 0.289,-10.332 0.433,-20.988 0.433,-31.972 V 343.41 c 0,-1.445 -0.394,-2.746 -1.191,-3.902 -0.797,-1.156 -2.168,-2.133 -4.121,-2.926 -1.949,-0.793 -4.586,-1.406 -7.91,-1.844 -3.32,-0.433 -7.582,-0.648 -12.785,-0.648 -5.055,0 -9.246,0.215 -12.571,0.648 -3.324,0.438 -5.925,1.051 -7.8,1.844 -1.883,0.793 -3.18,1.77 -3.903,2.926 -0.722,1.156 -1.086,2.457 -1.086,3.902 v 252.059 c 0,6.789 1.989,11.883 5.961,15.277 3.977,3.395 8.852,5.094 14.629,5.094 h 30.559 c 5.492,0 10.117,-0.469 13.871,-1.41 3.758,-0.938 7.117,-2.492 10.078,-4.66 2.965,-2.168 5.742,-5.165 8.344,-8.993 2.601,-3.828 5.273,-8.562 8.019,-14.195 l 54.614,-102.516 c 3.183,-6.211 6.324,-12.316 9.429,-18.312 3.11,-5.996 6.106,-11.992 8.996,-17.988 2.891,-5.996 5.707,-11.883 8.453,-17.664 2.747,-5.782 5.418,-11.559 8.02,-17.34 h 0.219 c -0.438,10.113 -0.762,20.664 -0.977,31.644 -0.219,10.981 -0.328,21.457 -0.328,31.426 v 131.555 c 0,1.445 0.434,2.746 1.305,3.898 0.863,1.156 2.308,2.172 4.332,3.039 2.023,0.864 4.695,1.481 8.019,1.84 3.321,0.363 7.586,0.543 12.789,0.543 4.91,0 9.028,-0.18 12.352,-0.543 3.32,-0.359 5.887,-0.976 7.691,-1.84 1.809,-0.867 3.075,-1.883 3.793,-3.039 0.727,-1.152 1.086,-2.453 1.086,-3.898 V 355.332" /><path
         id="path18"
         style="fill:#20201c;fill-opacity:1;fill-rule:nonzero;stroke:none"
         d="m 659.582,343.191 c 0,-1.445 -0.469,-2.742 -1.41,-3.902 -0.942,-1.152 -2.492,-2.094 -4.66,-2.816 -2.164,-0.723 -5.055,-1.297 -8.668,-1.735 -3.614,-0.433 -8.239,-0.648 -13.871,-0.648 -5.493,0 -10.078,0.215 -13.762,0.648 -3.684,0.438 -6.613,1.012 -8.777,1.735 -2.168,0.722 -3.723,1.664 -4.661,2.816 -0.937,1.16 -1.41,2.457 -1.41,3.902 v 264.844 c 0,1.449 0.473,2.746 1.41,3.903 0.938,1.156 2.528,2.097 4.766,2.816 2.242,0.723 5.168,1.301 8.777,1.734 3.614,0.434 8.164,0.649 13.657,0.649 5.632,0 10.257,-0.215 13.871,-0.649 3.613,-0.433 6.504,-1.011 8.668,-1.734 2.168,-0.719 3.718,-1.66 4.66,-2.816 0.941,-1.157 1.41,-2.454 1.41,-3.903 V 343.191" /><path
         id="path20"
         style="fill:#20201c;fill-opacity:1;fill-rule:nonzero;stroke:none"
         d="m 968.98,478.863 c 0,-23.258 -2.894,-44.066 -8.671,-62.414 -5.778,-18.351 -14.375,-33.918 -25.793,-46.707 -11.414,-12.789 -25.536,-22.539 -42.371,-29.258 -16.832,-6.718 -36.301,-10.078 -58.407,-10.078 -21.816,0 -40.851,2.852 -57.109,8.563 -16.254,5.703 -29.797,14.41 -40.637,26.113 -10.836,11.703 -18.965,26.586 -24.383,44.648 -5.418,18.059 -8.125,39.446 -8.125,64.149 0,22.687 2.887,43.094 8.668,61.226 5.778,18.137 14.375,33.559 25.793,46.274 11.414,12.715 25.535,22.469 42.368,29.258 16.835,6.793 36.375,10.187 58.628,10.187 21.239,0 39.985,-2.816 56.239,-8.453 16.258,-5.633 29.84,-14.305 40.746,-26.008 10.91,-11.703 19.144,-26.476 24.707,-44.32 5.562,-17.844 8.347,-38.902 8.347,-63.18 z m -59.82,-3.031 c 0,14.738 -1.156,28.137 -3.465,40.203 -2.312,12.067 -6.25,22.395 -11.816,30.992 -5.563,8.598 -12.965,15.243 -22.211,19.942 -9.25,4.695 -20.809,7.039 -34.68,7.039 -14.015,0 -25.718,-2.633 -35.109,-7.91 -9.391,-5.27 -16.977,-12.317 -22.754,-21.129 -5.781,-8.813 -9.863,-19.106 -12.25,-30.883 -2.383,-11.777 -3.574,-24.238 -3.574,-37.387 0,-15.316 1.156,-29.078 3.469,-41.289 2.312,-12.207 6.21,-22.648 11.703,-31.316 5.488,-8.668 12.859,-15.281 22.105,-19.832 9.25,-4.551 20.879,-6.824 34.895,-6.824 14.015,0 25.718,2.597 35.109,7.8 9.395,5.203 16.977,12.282 22.758,21.242 5.777,8.954 9.859,19.399 12.242,31.317 2.387,11.918 3.578,24.598 3.578,38.035 z m -58.734,215.645 c 1.879,2.168 3.719,3.902 5.527,5.203 1.805,1.3 3.973,2.312 6.5,3.035 2.531,0.719 5.602,1.191 9.215,1.406 3.609,0.219 8.09,0.328 13.434,0.328 6.648,0 11.812,-0.433 15.496,-1.301 3.687,-0.867 6.215,-1.988 7.586,-3.359 1.375,-1.375 1.699,-2.926 0.976,-4.66 -0.722,-1.734 -2.094,-3.543 -4.117,-5.418 L 856.93,643.363 c -1.446,-1.3 -2.926,-2.418 -4.442,-3.359 -1.519,-0.938 -3.363,-1.731 -5.531,-2.383 -2.164,-0.648 -4.766,-1.121 -7.801,-1.41 -3.035,-0.289 -6.789,-0.434 -11.269,-0.434 -4.914,0 -8.852,0.219 -11.813,0.653 -2.961,0.433 -5.058,1.117 -6.285,2.058 -1.226,0.942 -1.695,2.129 -1.406,3.575 0.289,1.445 1.297,3.179 3.031,5.203 l 39.012,44.211" /><path
         id="path22"
         style="fill:#20201c;fill-opacity:1;fill-rule:nonzero;stroke:none"
         d="m 1243.69,355.332 c 0,-3.324 -0.58,-6.289 -1.73,-8.887 -1.16,-2.601 -2.71,-4.769 -4.66,-6.504 -1.95,-1.734 -4.26,-3 -6.94,-3.793 -2.67,-0.793 -5.38,-1.191 -8.13,-1.191 h -24.27 c -5.06,0 -9.42,0.504 -13.11,1.516 -3.69,1.011 -7.08,2.855 -10.19,5.527 -3.11,2.672 -6.1,6.285 -8.99,10.836 -2.89,4.551 -6.14,10.441 -9.75,17.664 l -69.79,131.125 c -4.05,7.801 -8.17,16.215 -12.36,25.246 -4.19,9.031 -7.94,17.809 -11.27,26.332 h -0.43 c 0.58,-10.402 1.01,-20.769 1.3,-31.098 0.29,-10.332 0.43,-20.988 0.43,-31.972 V 343.41 c 0,-1.445 -0.39,-2.746 -1.19,-3.902 -0.79,-1.156 -2.16,-2.133 -4.11,-2.926 -1.95,-0.793 -4.59,-1.406 -7.91,-1.844 -3.33,-0.433 -7.59,-0.648 -12.79,-0.648 -5.06,0 -9.25,0.215 -12.57,0.648 -3.33,0.438 -5.93,1.051 -7.81,1.844 -1.87,0.793 -3.17,1.77 -3.9,2.926 -0.72,1.156 -1.08,2.457 -1.08,3.902 v 252.059 c 0,6.789 1.99,11.883 5.96,15.277 3.98,3.395 8.85,5.094 14.63,5.094 h 30.56 c 5.49,0 10.11,-0.469 13.87,-1.41 3.75,-0.938 7.11,-2.492 10.08,-4.66 2.96,-2.168 5.74,-5.165 8.34,-8.993 2.6,-3.828 5.28,-8.562 8.02,-14.195 l 54.62,-102.516 c 3.18,-6.211 6.32,-12.316 9.43,-18.312 3.1,-5.996 6.1,-11.992 8.99,-17.988 2.89,-5.996 5.7,-11.883 8.45,-17.664 2.74,-5.782 5.42,-11.559 8.02,-17.34 h 0.22 c -0.44,10.113 -0.76,20.664 -0.98,31.644 -0.22,10.981 -0.32,21.457 -0.32,31.426 v 131.555 c 0,1.445 0.43,2.746 1.3,3.898 0.86,1.156 2.31,2.172 4.33,3.039 2.02,0.864 4.7,1.481 8.02,1.84 3.32,0.363 7.59,0.543 12.79,0.543 4.91,0 9.03,-0.18 12.35,-0.543 3.33,-0.359 5.89,-0.976 7.69,-1.84 1.81,-0.867 3.07,-1.883 3.8,-3.039 0.72,-1.152 1.08,-2.453 1.08,-3.898 V 355.332" /><path
         id="path24"
         style="fill:#20201c;fill-opacity:1;fill-rule:nonzero;stroke:none"
         d="m 1562.95,357.715 c 0,-4.192 -0.18,-7.695 -0.54,-10.512 -0.36,-2.816 -0.91,-5.094 -1.63,-6.828 -0.72,-1.734 -1.62,-3 -2.71,-3.793 -1.08,-0.793 -2.27,-1.191 -3.57,-1.191 h -140.88 c -4.76,0 -8.78,1.41 -12.03,4.226 -3.25,2.817 -4.87,7.403 -4.87,13.762 v 244.473 c 0,6.355 1.62,10.945 4.87,13.761 3.25,2.817 7.27,4.227 12.03,4.227 h 140.01 c 1.3,0 2.46,-0.363 3.47,-1.086 1.01,-0.719 1.88,-1.984 2.6,-3.793 0.72,-1.805 1.26,-4.117 1.62,-6.934 0.36,-2.816 0.55,-6.394 0.55,-10.726 0,-4.047 -0.19,-7.477 -0.55,-10.297 -0.36,-2.816 -0.9,-5.09 -1.62,-6.824 -0.72,-1.735 -1.59,-3 -2.6,-3.793 -1.01,-0.797 -2.17,-1.196 -3.47,-1.196 H 1453.5 v -68.484 h 84.74 c 1.3,0 2.49,-0.398 3.58,-1.191 1.08,-0.793 1.98,-2.024 2.71,-3.684 0.72,-1.664 1.26,-3.902 1.62,-6.719 0.36,-2.82 0.55,-6.25 0.55,-10.297 0,-4.191 -0.19,-7.656 -0.55,-10.402 -0.36,-2.746 -0.9,-4.949 -1.62,-6.609 -0.73,-1.664 -1.63,-2.856 -2.71,-3.578 -1.09,-0.723 -2.28,-1.082 -3.58,-1.082 h -84.74 v -79.11 h 101 c 1.3,0 2.49,-0.394 3.57,-1.187 1.09,-0.797 1.99,-2.063 2.71,-3.797 0.72,-1.735 1.27,-4.008 1.63,-6.824 0.36,-2.821 0.54,-6.321 0.54,-10.512" /><path
         id="path26"
         style="fill:#20201c;fill-opacity:1;fill-rule:nonzero;stroke:none"
         d="m 1838.11,439.855 c 0,-17.195 -2.54,-32.582 -7.59,-46.164 -5.06,-13.582 -12.5,-25.07 -22.32,-34.461 -9.83,-9.39 -21.97,-16.542 -36.42,-21.457 -14.44,-4.91 -31.06,-7.367 -49.85,-7.367 -17.62,0 -33.44,2.203 -47.46,6.61 -14.01,4.406 -25.86,11.089 -35.54,20.047 -9.68,8.957 -17.09,20.121 -22.22,33.484 -5.13,13.367 -7.69,29.008 -7.69,46.922 v 170.566 c 0,1.449 0.43,2.746 1.3,3.903 0.86,1.156 2.42,2.097 4.66,2.816 2.24,0.723 5.16,1.301 8.78,1.734 3.61,0.434 8.23,0.649 13.87,0.649 5.49,0 10.04,-0.215 13.65,-0.649 3.61,-0.433 6.51,-1.011 8.67,-1.734 2.17,-0.719 3.72,-1.66 4.66,-2.816 0.94,-1.157 1.41,-2.454 1.41,-3.903 V 442.457 c 0,-11.125 1.37,-20.773 4.12,-28.937 2.74,-8.161 6.68,-14.918 11.81,-20.262 5.13,-5.344 11.27,-9.356 18.42,-12.028 7.15,-2.675 15.14,-4.011 23.95,-4.011 8.96,0 16.98,1.375 24.06,4.117 7.07,2.746 13.07,6.754 17.99,12.031 4.91,5.274 8.7,11.774 11.38,19.508 2.66,7.727 4,16.504 4,26.328 v 168.832 c 0,1.449 0.44,2.746 1.3,3.903 0.87,1.156 2.39,2.097 4.56,2.816 2.16,0.723 5.09,1.301 8.77,1.734 3.69,0.434 8.27,0.649 13.76,0.649 5.5,0 10.01,-0.215 13.55,-0.649 3.54,-0.433 6.39,-1.011 8.56,-1.734 2.17,-0.719 3.69,-1.66 4.55,-2.816 0.87,-1.157 1.31,-2.454 1.31,-3.903 v -168.18" /><path
         id="path28"
         style="fill:#20201c;fill-opacity:1;fill-rule:nonzero;stroke:none"
         d="m 2103.07,342.758 c 0,-1.586 -0.29,-2.926 -0.87,-4.008 -0.57,-1.082 -1.95,-1.988 -4.11,-2.711 -2.17,-0.723 -5.35,-1.226 -9.54,-1.516 -4.19,-0.289 -9.9,-0.433 -17.12,-0.433 -6.07,0 -10.91,0.144 -14.52,0.433 -3.62,0.29 -6.47,0.832 -8.57,1.625 -2.09,0.793 -3.57,1.805 -4.44,3.036 -0.86,1.226 -1.59,2.711 -2.17,4.441 l -25.14,62.637 c -3.03,7.078 -5.99,13.367 -8.88,18.855 -2.89,5.492 -6.1,10.078 -9.64,13.762 -3.55,3.684 -7.63,6.469 -12.25,8.344 -4.62,1.879 -9.97,2.82 -16.04,2.82 h -17.77 V 343.191 c 0,-1.445 -0.47,-2.742 -1.41,-3.902 -0.94,-1.152 -2.49,-2.094 -4.66,-2.816 -2.17,-0.723 -5.06,-1.297 -8.67,-1.735 -3.61,-0.433 -8.23,-0.648 -13.87,-0.648 -5.49,0 -10.08,0.215 -13.76,0.648 -3.69,0.438 -6.61,1.012 -8.78,1.735 -2.17,0.722 -3.68,1.664 -4.55,2.816 -0.87,1.16 -1.3,2.457 -1.3,3.902 v 254.661 c 0,6.355 1.62,10.945 4.87,13.761 3.26,2.817 7.27,4.227 12.03,4.227 h 72.61 c 7.37,0 13.43,-0.145 18.21,-0.434 4.76,-0.289 9.1,-0.652 13,-1.082 11.27,-1.59 21.42,-4.336 30.45,-8.238 9.03,-3.898 16.69,-8.992 22.97,-15.281 6.29,-6.282 11.09,-13.723 14.42,-22.321 3.32,-8.597 4.98,-18.461 4.98,-29.586 0,-9.39 -1.19,-17.949 -3.58,-25.679 -2.38,-7.731 -5.88,-14.633 -10.51,-20.699 -4.62,-6.071 -10.33,-11.344 -17.12,-15.821 -6.79,-4.48 -14.52,-8.09 -23.19,-10.836 4.19,-2.023 8.13,-4.48 11.81,-7.371 3.69,-2.887 7.15,-6.394 10.41,-10.512 3.24,-4.117 6.32,-8.812 9.21,-14.085 2.88,-5.274 5.7,-11.235 8.45,-17.879 l 23.62,-55.27 c 2.17,-5.488 3.61,-9.496 4.33,-12.027 0.73,-2.528 1.09,-4.516 1.09,-5.961 z m -73.47,190.289 c 0,9.246 -2.1,17.051 -6.29,23.41 -4.18,6.356 -11.05,10.836 -20.58,13.438 -2.9,0.718 -6.18,1.296 -9.87,1.73 -3.68,0.434 -8.77,0.652 -15.28,0.652 h -25.57 v -79.539 h 29.04 c 8.09,0 15.17,0.973 21.24,2.926 6.07,1.949 11.13,4.691 15.17,8.234 4.05,3.54 7.08,7.766 9.11,12.68 2.02,4.91 3.03,10.402 3.03,16.469" /><path
         id="path30"
         style="fill:#20201c;fill-opacity:1;fill-rule:nonzero;stroke:none"
         d="m 2393.18,478.863 c 0,-23.258 -2.89,-44.066 -8.67,-62.414 -5.78,-18.351 -14.38,-33.918 -25.8,-46.707 -11.41,-12.789 -25.54,-22.539 -42.36,-29.258 -16.84,-6.718 -36.31,-10.078 -58.41,-10.078 -21.82,0 -40.85,2.852 -57.12,8.563 -16.24,5.703 -29.79,14.41 -40.63,26.113 -10.83,11.703 -18.96,26.586 -24.39,44.648 -5.4,18.059 -8.12,39.446 -8.12,64.149 0,22.687 2.89,43.094 8.67,61.226 5.78,18.137 14.38,33.559 25.79,46.274 11.42,12.715 25.54,22.469 42.38,29.258 16.82,6.793 36.37,10.187 58.62,10.187 21.24,0 39.98,-2.816 56.25,-8.453 16.24,-5.633 29.82,-14.305 40.74,-26.008 10.9,-11.703 19.14,-26.476 24.71,-44.32 5.55,-17.844 8.34,-38.902 8.34,-63.18 z m -59.82,-3.031 c 0,14.738 -1.16,28.137 -3.47,40.203 -2.31,12.067 -6.25,22.395 -11.8,30.992 -5.58,8.598 -12.98,15.243 -22.23,19.942 -9.24,4.695 -20.8,7.039 -34.67,7.039 -14.02,0 -25.72,-2.633 -35.11,-7.91 -9.39,-5.27 -16.98,-12.317 -22.76,-21.129 -5.78,-8.813 -9.87,-19.106 -12.23,-30.883 -2.41,-11.777 -3.59,-24.238 -3.59,-37.387 0,-15.316 1.16,-29.078 3.47,-41.289 2.31,-12.207 6.21,-22.648 11.7,-31.316 5.49,-8.668 12.86,-15.281 22.11,-19.832 9.25,-4.551 20.88,-6.824 34.89,-6.824 14.02,0 25.72,2.597 35.12,7.8 9.39,5.203 16.97,12.282 22.75,21.242 5.78,8.954 9.85,19.399 12.25,31.317 2.37,11.918 3.57,24.598 3.57,38.035" /><path
         id="path32"
         style="fill:#20201c;fill-opacity:1;fill-rule:nonzero;stroke:none"
         d="m 2628.66,530.664 c 0,-15.75 -2.45,-29.691 -7.37,-41.828 -4.91,-12.137 -12.06,-22.359 -21.45,-30.668 -9.39,-8.309 -20.92,-14.629 -34.56,-18.965 -13.67,-4.336 -29.74,-6.5 -48.23,-6.5 h -23.41 v -89.512 c 0,-1.445 -0.48,-2.742 -1.42,-3.902 -0.93,-1.152 -2.48,-2.094 -4.65,-2.816 -2.17,-0.723 -5.05,-1.297 -8.67,-1.735 -3.61,-0.433 -8.24,-0.648 -13.87,-0.648 -5.49,0 -10.08,0.215 -13.76,0.648 -3.69,0.438 -6.61,1.012 -8.78,1.735 -2.17,0.722 -3.68,1.664 -4.55,2.816 -0.87,1.16 -1.3,2.457 -1.3,3.902 v 252.278 c 0,6.789 1.76,11.883 5.3,15.277 3.54,3.395 8.21,5.094 13.99,5.094 h 66.1 c 6.65,0 12.96,-0.25 18.97,-0.758 5.98,-0.508 13.18,-1.59 21.56,-3.254 8.38,-1.66 16.86,-4.73 25.46,-9.207 8.6,-4.48 15.94,-10.152 22,-17.016 6.07,-6.863 10.69,-14.882 13.87,-24.058 3.18,-9.172 4.77,-19.469 4.77,-30.883 z m -59.6,-4.117 c 0,9.824 -1.73,17.914 -5.2,24.273 -3.47,6.356 -7.73,11.055 -12.79,14.09 -5.05,3.031 -10.37,4.945 -15.93,5.738 -5.57,0.797 -11.3,1.196 -17.23,1.196 h -24.27 v -95.145 h 25.57 c 9.11,0 16.72,1.227 22.86,3.684 6.14,2.457 11.17,5.887 15.07,10.297 3.9,4.406 6.86,9.675 8.89,15.82 2.02,6.141 3.03,12.82 3.03,20.047" /><path
         id="path34"
         style="fill:#20201c;fill-opacity:1;fill-rule:nonzero;stroke:none"
         d="m 2834.67,357.715 c 0,-4.192 -0.19,-7.695 -0.55,-10.512 -0.36,-2.816 -0.89,-5.094 -1.62,-6.828 -0.72,-1.734 -1.61,-3 -2.71,-3.793 -1.07,-0.793 -2.27,-1.191 -3.57,-1.191 h -140.88 c -4.76,0 -8.77,1.41 -12.03,4.226 -3.24,2.817 -4.87,7.403 -4.87,13.762 v 244.473 c 0,6.355 1.63,10.945 4.87,13.761 3.26,2.817 7.27,4.227 12.03,4.227 h 140.02 c 1.29,0 2.45,-0.363 3.46,-1.086 1.01,-0.719 1.88,-1.984 2.6,-3.793 0.72,-1.805 1.26,-4.117 1.63,-6.934 0.35,-2.816 0.54,-6.394 0.54,-10.726 0,-4.047 -0.19,-7.477 -0.54,-10.297 -0.37,-2.816 -0.91,-5.09 -1.63,-6.824 -0.72,-1.735 -1.59,-3 -2.6,-3.793 -1.01,-0.797 -2.17,-1.196 -3.46,-1.196 h -100.14 v -68.484 h 84.74 c 1.31,0 2.49,-0.398 3.59,-1.191 1.07,-0.793 1.98,-2.024 2.7,-3.684 0.72,-1.664 1.25,-3.902 1.63,-6.719 0.35,-2.82 0.54,-6.25 0.54,-10.297 0,-4.191 -0.19,-7.656 -0.54,-10.402 -0.38,-2.746 -0.91,-4.949 -1.63,-6.609 -0.72,-1.664 -1.63,-2.856 -2.7,-3.578 -1.1,-0.723 -2.28,-1.082 -3.59,-1.082 h -84.74 v -79.11 h 101 c 1.3,0 2.5,-0.394 3.57,-1.187 1.1,-0.797 1.99,-2.063 2.71,-3.797 0.73,-1.735 1.26,-4.008 1.62,-6.824 0.36,-2.821 0.55,-6.321 0.55,-10.512" /><path
         id="path36"
         style="fill:#20201c;fill-opacity:1;fill-rule:nonzero;stroke:none"
         d="m 3110.69,356.629 c 1.73,-5.203 2.81,-9.32 3.25,-12.352 0.43,-3.035 -0.15,-5.308 -1.74,-6.828 -1.59,-1.515 -4.4,-2.457 -8.45,-2.816 -4.04,-0.363 -9.61,-0.543 -16.69,-0.543 -7.37,0 -13.11,0.109 -17.22,0.324 -4.13,0.219 -7.27,0.652 -9.44,1.301 -2.17,0.652 -3.68,1.555 -4.55,2.707 -0.87,1.16 -1.59,2.676 -2.17,4.555 l -18.85,56.347 H 2929.5 l -17.77,-54.828 c -0.58,-2.027 -1.35,-3.723 -2.27,-5.098 -0.95,-1.371 -2.48,-2.457 -4.57,-3.25 -2.09,-0.793 -5.05,-1.335 -8.87,-1.625 -3.84,-0.289 -8.86,-0.433 -15.07,-0.433 -6.65,0 -11.85,0.215 -15.6,0.648 -3.76,0.438 -6.36,1.481 -7.81,3.145 -1.44,1.66 -1.95,4.012 -1.51,7.043 0.43,3.035 1.51,7.082 3.25,12.137 l 86.47,248.808 c 0.87,2.453 1.88,4.442 3.04,5.957 1.16,1.52 2.99,2.676 5.52,3.469 2.53,0.797 6.04,1.301 10.51,1.519 4.48,0.215 10.41,0.321 17.78,0.321 8.53,0 15.31,-0.106 20.37,-0.321 5.06,-0.218 8.99,-0.722 11.82,-1.519 2.8,-0.793 4.82,-1.988 6.07,-3.574 1.21,-1.59 2.27,-3.758 3.13,-6.504 z m -128.74,205.68 h -0.22 l -39.66,-119.204 h 79.54 l -39.66,119.204" /><path
         id="path38"
         style="fill:#20201c;fill-opacity:1;fill-rule:nonzero;stroke:none"
         d="m 120.355,172.523 c 0,-1.371 -0.07,-2.562 -0.214,-3.574 -0.145,-1.011 -0.399,-1.828 -0.758,-2.437 -0.363,-0.617 -0.785,-1.067 -1.254,-1.356 -0.469,-0.289 -0.953,-0.433 -1.457,-0.433 H 65.3047 v -47.68 h 48.5473 c 0.507,0 0.992,-0.129 1.461,-0.375 0.472,-0.262 0.89,-0.676 1.25,-1.254 0.359,-0.578 0.613,-1.348 0.757,-2.328 0.145,-0.973 0.219,-2.223 0.219,-3.738 0,-1.371 -0.074,-2.551 -0.219,-3.52 -0.144,-0.98 -0.398,-1.777 -0.757,-2.383 -0.36,-0.621 -0.778,-1.082 -1.25,-1.414 -0.469,-0.32 -0.954,-0.484 -1.461,-0.484 H 65.3047 V 43.1367 c 0,-0.5039 -0.1445,-0.9961 -0.4336,-1.4609 -0.2891,-0.4766 -0.793,-0.836 -1.5156,-1.082 -0.7227,-0.2579 -1.6602,-0.4727 -2.8164,-0.6524 -1.1563,-0.1758 -2.6758,-0.2695 -4.5508,-0.2695 -1.7344,0 -3.2149,0.0937 -4.4453,0.2695 -1.2266,0.1797 -2.2032,0.3945 -2.9258,0.6524 -0.7227,0.246 -1.2305,0.6054 -1.5156,1.082 -0.2891,0.4648 -0.4336,0.957 -0.4336,1.4609 V 172.957 c 0,2.82 0.7383,4.785 2.2226,5.91 1.4766,1.113 3.0508,1.676 4.711,1.676 h 63.0704 c 0.504,0 0.988,-0.145 1.457,-0.434 0.469,-0.289 0.891,-0.757 1.254,-1.406 0.359,-0.652 0.613,-1.504 0.758,-2.551 0.144,-1.047 0.214,-2.254 0.214,-3.629" /><path
         id="path40"
         style="fill:#20201c;fill-opacity:1;fill-rule:nonzero;stroke:none"
         d="m 234.398,92.875 c 0,-7.9453 -1.046,-15.2617 -3.14,-21.9414 -2.094,-6.6875 -5.223,-12.4453 -9.371,-17.2852 -4.16,-4.8398 -9.364,-8.6171 -15.606,-11.3203 -6.258,-2.7148 -13.496,-4.0664 -21.73,-4.0664 -8.02,0 -15.012,1.1914 -20.965,3.5742 -5.965,2.3868 -10.93,5.8516 -14.906,10.4024 -3.969,4.5508 -6.934,10.0781 -8.883,16.582 -1.953,6.5 -2.926,13.8711 -2.926,22.1055 0,7.9453 1.024,15.2582 3.094,21.9412 2.047,6.684 5.156,12.446 9.316,17.285 4.149,4.84 9.336,8.598 15.547,11.274 6.215,2.672 13.477,4.008 21.781,4.008 8.02,0 15.008,-1.192 20.973,-3.575 5.953,-2.386 10.926,-5.855 14.898,-10.406 3.973,-4.551 6.95,-10.078 8.942,-16.578 1.98,-6.504 2.976,-13.836 2.976,-22 z m -18.531,-1.1914 c 0,5.2734 -0.492,10.2574 -1.472,14.9574 -0.993,4.691 -2.606,8.812 -4.872,12.351 -2.257,3.539 -5.32,6.344 -9.179,8.395 -3.864,2.066 -8.676,3.093 -14.434,3.093 -5.324,0 -9.898,-0.941 -13.726,-2.82 -3.829,-1.875 -6.981,-4.535 -9.457,-7.961 -2.477,-3.437 -4.321,-7.496 -5.52,-12.195 -1.207,-4.695 -1.809,-9.8243 -1.809,-15.3868 0,-5.3438 0.493,-10.3672 1.477,-15.0625 0.988,-4.6953 2.629,-8.8008 4.922,-12.3008 2.293,-3.5039 5.371,-6.2891 9.238,-8.3398 3.863,-2.0664 8.676,-3.0899 14.434,-3.0899 5.25,0 9.804,0.9375 13.668,2.8164 3.863,1.8789 7.039,4.5157 9.515,7.9102 2.477,3.3945 4.297,7.4414 5.469,12.1367 1.164,4.6953 1.746,9.8633 1.746,15.4961" /><path
         id="path42"
         style="fill:#20201c;fill-opacity:1;fill-rule:nonzero;stroke:none"
         d="m 344.715,43.0273 c 0,-0.5781 -0.145,-1.0703 -0.434,-1.4648 -0.289,-0.3984 -0.758,-0.7383 -1.406,-1.0273 -0.652,-0.2891 -1.555,-0.5039 -2.711,-0.6485 -1.156,-0.1445 -2.601,-0.2148 -4.332,-0.2148 -1.809,0 -3.289,0.0703 -4.445,0.2148 -1.157,0.1446 -2.059,0.3594 -2.711,0.6485 -0.649,0.289 -1.117,0.6289 -1.406,1.0273 -0.293,0.3945 -0.434,0.8867 -0.434,1.4648 v 57.1097 c 0,5.562 -0.434,10.043 -1.301,13.437 -0.867,3.395 -2.133,6.321 -3.793,8.778 -1.66,2.457 -3.816,4.336 -6.445,5.636 -2.641,1.297 -5.692,1.95 -9.16,1.95 -4.477,0 -8.957,-1.59 -13.438,-4.77 -4.476,-3.18 -9.176,-7.836 -14.086,-13.98 V 43.0273 c 0,-0.5781 -0.144,-1.0703 -0.433,-1.4648 -0.289,-0.3984 -0.758,-0.7383 -1.41,-1.0273 -0.653,-0.2891 -1.551,-0.5039 -2.707,-0.6485 -1.157,-0.1445 -2.637,-0.2148 -4.446,-0.2148 -1.73,0 -3.179,0.0703 -4.332,0.2148 -1.156,0.1446 -2.082,0.3594 -2.769,0.6485 -0.688,0.289 -1.157,0.6289 -1.399,1.0273 -0.262,0.3945 -0.387,0.8867 -0.387,1.4648 v 97.5277 c 0,0.582 0.11,1.066 0.329,1.468 0.214,0.391 0.648,0.75 1.296,1.082 0.653,0.321 1.485,0.536 2.493,0.653 1.015,0.101 2.351,0.16 4.011,0.16 1.59,0 2.903,-0.059 3.961,-0.16 1.039,-0.117 1.856,-0.332 2.434,-0.653 0.578,-0.332 0.988,-0.691 1.25,-1.082 0.242,-0.402 0.375,-0.886 0.375,-1.468 V 127.66 c 5.488,6.145 10.957,10.637 16.414,13.496 5.453,2.848 10.965,4.278 16.527,4.278 6.504,0 11.981,-1.106 16.414,-3.309 4.45,-2.203 8.043,-5.145 10.786,-8.828 2.746,-3.684 4.718,-8.004 5.902,-12.945 1.203,-4.957 1.793,-10.895 1.793,-17.832 V 43.0273" /><path
         id="path44"
         style="fill:#20201c;fill-opacity:1;fill-rule:nonzero;stroke:none"
         d="m 460.883,43.0273 c 0,-0.5781 -0.129,-1.082 -0.375,-1.5156 -0.262,-0.4336 -0.695,-0.7812 -1.301,-1.0351 -0.621,-0.2461 -1.43,-0.4453 -2.445,-0.5899 -1.008,-0.1445 -2.235,-0.2148 -3.68,-0.2148 -1.519,0 -2.785,0.0703 -3.793,0.2148 -1.012,0.1446 -1.844,0.3438 -2.492,0.5899 -0.652,0.2539 -1.121,0.6015 -1.41,1.0351 -0.289,0.4336 -0.434,0.9375 -0.434,1.5156 v 12.8946 c -5.129,-5.5625 -10.453,-9.8946 -15.988,-13 -5.52,-3.1094 -11.57,-4.6602 -18.149,-4.6602 -7.152,0 -13.253,1.3946 -18.312,4.168 -5.059,2.7812 -9.152,6.5391 -12.305,11.2695 -3.133,4.7305 -5.429,10.3008 -6.875,16.6875 -1.445,6.3985 -2.168,13.1328 -2.168,20.2149 0,8.3789 0.903,15.9454 2.707,22.6994 1.809,6.754 4.481,12.519 8.02,17.289 3.543,4.765 7.926,8.43 13.172,11 5.23,2.558 11.285,3.844 18.144,3.844 5.711,0 10.926,-1.243 15.664,-3.743 4.727,-2.484 9.407,-6.156 14.032,-10.996 v 56.676 c 0,0.504 0.121,0.992 0.375,1.465 0.253,0.465 0.742,0.824 1.464,1.086 0.723,0.246 1.641,0.461 2.77,0.648 1.113,0.176 2.543,0.27 4.277,0.27 1.805,0 3.285,-0.094 4.442,-0.27 1.156,-0.187 2.058,-0.402 2.707,-0.648 0.652,-0.262 1.144,-0.621 1.461,-1.086 0.332,-0.473 0.492,-0.961 0.492,-1.465 z m -17.988,68.5977 c -4.844,5.996 -9.524,10.563 -14.032,13.711 -4.523,3.133 -9.23,4.711 -14.144,4.711 -4.551,0 -8.418,-1.086 -11.594,-3.25 -3.18,-2.168 -5.766,-5.024 -7.75,-8.563 -1.992,-3.539 -3.434,-7.55 -4.336,-12.031 -0.902,-4.476 -1.351,-9.0272 -1.351,-13.6522 0,-4.9141 0.382,-9.7149 1.136,-14.4102 0.762,-4.6992 2.078,-8.875 3.957,-12.5195 1.875,-3.6484 4.367,-6.5742 7.477,-8.7734 3.105,-2.211 7.004,-3.3086 11.703,-3.3086 2.387,0 4.672,0.3242 6.883,0.9765 2.199,0.6485 4.457,1.7344 6.769,3.25 2.313,1.5157 4.735,3.4844 7.262,5.9024 2.527,2.4218 5.203,5.4062 8.02,8.9453 v 39.0117" /><path
         id="path46"
         style="fill:#20201c;fill-opacity:1;fill-rule:nonzero;stroke:none"
         d="m 584.637,92.875 c 0,-7.9453 -1.047,-15.2617 -3.145,-21.9414 -2.094,-6.6875 -5.222,-12.4453 -9.367,-17.2852 -4.164,-4.8398 -9.367,-8.6171 -15.605,-11.3203 -6.258,-2.7148 -13.497,-4.0664 -21.731,-4.0664 -8.019,0 -15.012,1.1914 -20.965,3.5742 -5.969,2.3868 -10.929,5.8516 -14.906,10.4024 -3.973,4.5508 -6.934,10.0781 -8.887,16.582 -1.949,6.5 -2.926,13.8711 -2.926,22.1055 0,7.9453 1.028,15.2582 3.094,21.9412 2.051,6.684 5.156,12.446 9.317,17.285 4.148,4.84 9.336,8.598 15.547,11.274 6.214,2.672 13.476,4.008 21.785,4.008 8.019,0 15.004,-1.192 20.972,-3.575 5.95,-2.386 10.922,-5.855 14.895,-10.406 3.973,-4.551 6.949,-10.078 8.945,-16.578 1.977,-6.504 2.977,-13.836 2.977,-22 z m -18.532,-1.1914 c 0,5.2734 -0.492,10.2574 -1.472,14.9574 -0.992,4.691 -2.61,8.812 -4.871,12.351 -2.258,3.539 -5.324,6.344 -9.184,8.395 -3.863,2.066 -8.676,3.093 -14.43,3.093 -5.324,0 -9.898,-0.941 -13.726,-2.82 -3.832,-1.875 -6.981,-4.535 -9.461,-7.961 -2.477,-3.437 -4.32,-7.496 -5.52,-12.195 -1.203,-4.695 -1.804,-9.8243 -1.804,-15.3868 0,-5.3438 0.492,-10.3672 1.476,-15.0625 0.989,-4.6953 2.629,-8.8008 4.918,-12.3008 2.297,-3.5039 5.375,-6.2891 9.239,-8.3398 3.867,-2.0664 8.679,-3.0899 14.437,-3.0899 5.25,0 9.801,0.9375 13.668,2.8164 3.863,1.8789 7.035,4.5157 9.512,7.9102 2.48,3.3945 4.301,7.4414 5.468,12.1367 1.165,4.6953 1.75,9.8633 1.75,15.4961" /><path
         id="path48"
         style="fill:#20201c;fill-opacity:1;fill-rule:nonzero;stroke:none"
         d="m 738.516,79.6563 c 0,-6.5743 -1.215,-12.4258 -3.637,-17.5547 -2.418,-5.1289 -5.777,-9.4844 -10.07,-13.0547 -4.305,-3.5821 -9.364,-6.2696 -15.172,-8.0781 -5.824,-1.8047 -12.086,-2.7071 -18.805,-2.7071 -4.695,0 -9.051,0.3946 -13.051,1.1914 -4.019,0.793 -7.586,1.7657 -10.738,2.9258 -3.133,1.1563 -5.777,2.3477 -7.902,3.5781 -2.141,1.2266 -3.621,2.2735 -4.45,3.1407 -0.832,0.8671 -1.445,1.9648 -1.836,3.3007 -0.406,1.336 -0.597,3.1289 -0.597,5.3672 0,1.5899 0.07,2.9063 0.215,3.9532 0.144,1.0468 0.359,1.8984 0.652,2.5507 0.285,0.6485 0.648,1.0977 1.082,1.3516 0.43,0.25 0.938,0.3789 1.516,0.3789 1.011,0 2.433,-0.6133 4.285,-1.8398 1.832,-1.2305 4.203,-2.5664 7.094,-4.0118 2.89,-1.4453 6.375,-2.8007 10.461,-4.0664 4.074,-1.2617 8.792,-1.8906 14.136,-1.8906 4.047,0 7.754,0.5391 11.106,1.625 3.367,1.082 6.246,2.6133 8.668,4.6016 2.422,1.9883 4.285,4.4297 5.586,7.3164 1.3,2.8906 1.949,6.1797 1.949,9.8633 0,3.9726 -0.903,7.3671 -2.707,10.1836 -1.805,2.8203 -4.192,5.289 -7.153,7.4257 -2.964,2.125 -6.343,4.0782 -10.128,5.856 -3.801,1.761 -7.68,3.57 -11.653,5.417 -3.972,1.836 -7.84,3.879 -11.597,6.122 -3.754,2.234 -7.114,4.871 -10.079,7.91 -2.961,3.031 -5.367,6.586 -7.199,10.676 -1.851,4.074 -2.769,8.972 -2.769,14.679 0,5.852 1.062,11.067 3.203,15.664 2.121,4.578 5.082,8.43 8.883,11.535 3.785,3.106 8.3,5.469 13.539,7.102 5.238,1.617 10.894,2.434 16.965,2.434 3.105,0 6.226,-0.266 9.375,-0.817 3.136,-0.531 6.097,-1.262 8.886,-2.168 2.774,-0.902 5.25,-1.914 7.418,-3.031 2.168,-1.121 3.59,-2.023 4.285,-2.703 0.68,-0.695 1.133,-1.235 1.352,-1.633 0.215,-0.398 0.394,-0.902 0.543,-1.516 0.144,-0.613 0.25,-1.355 0.324,-2.218 0.07,-0.868 0.109,-1.985 0.109,-3.36 0,-1.301 -0.058,-2.457 -0.16,-3.468 -0.117,-1.012 -0.273,-1.864 -0.492,-2.543 -0.219,-0.692 -0.527,-1.2 -0.926,-1.516 -0.394,-0.332 -0.843,-0.492 -1.351,-0.492 -0.793,0 -2.043,0.504 -3.735,1.519 -1.703,1.012 -3.777,2.145 -6.234,3.407 -2.457,1.265 -5.367,2.421 -8.719,3.468 -3.367,1.051 -7.136,1.574 -11.328,1.574 -3.902,0 -7.297,-0.523 -10.187,-1.574 -2.887,-1.047 -5.274,-2.437 -7.153,-4.168 -1.875,-1.734 -3.285,-3.793 -4.222,-6.175 -0.942,-2.387 -1.41,-4.915 -1.41,-7.586 0,-3.903 0.902,-7.262 2.707,-10.079 1.808,-2.816 4.207,-5.312 7.203,-7.476 3,-2.168 6.418,-4.156 10.246,-5.961 3.828,-1.805 7.73,-3.633 11.703,-5.469 3.973,-1.851 7.875,-3.871 11.703,-6.07 3.828,-2.211 7.238,-4.809 10.242,-7.801 2.996,-3.004 5.418,-6.5468 7.254,-10.621 1.852,-4.0859 2.77,-8.9062 2.77,-14.4687" /><path
         id="path50"
         style="fill:#20201c;fill-opacity:1;fill-rule:nonzero;stroke:none"
         d="m 853.813,92.875 c 0,-7.9453 -1.047,-15.2617 -3.141,-21.9414 -2.094,-6.6875 -5.223,-12.4453 -9.371,-17.2852 -4.16,-4.8398 -9.363,-8.6171 -15.606,-11.3203 -6.254,-2.7148 -13.492,-4.0664 -21.726,-4.0664 -8.02,0 -15.016,1.1914 -20.969,3.5742 -5.965,2.3868 -10.926,5.8516 -14.902,10.4024 -3.973,4.5508 -6.934,10.0781 -8.887,16.582 -1.949,6.5 -2.926,13.8711 -2.926,22.1055 0,7.9453 1.028,15.2582 3.094,21.9412 2.051,6.684 5.156,12.446 9.32,17.285 4.145,4.84 9.332,8.598 15.543,11.274 6.215,2.672 13.477,4.008 21.781,4.008 8.024,0 15.008,-1.192 20.973,-3.575 5.957,-2.386 10.926,-5.855 14.899,-10.406 3.972,-4.551 6.949,-10.078 8.945,-16.578 1.976,-6.504 2.973,-13.836 2.973,-22 z m -18.528,-1.1914 c 0,5.2734 -0.492,10.2574 -1.472,14.9574 -0.993,4.691 -2.61,8.812 -4.872,12.351 -2.261,3.539 -5.324,6.344 -9.179,8.395 -3.867,2.066 -8.68,3.093 -14.438,3.093 -5.324,0 -9.898,-0.941 -13.726,-2.82 -3.828,-1.875 -6.977,-4.535 -9.457,-7.961 -2.477,-3.437 -4.321,-7.496 -5.52,-12.195 -1.207,-4.695 -1.805,-9.8243 -1.805,-15.3868 0,-5.3438 0.493,-10.3672 1.477,-15.0625 0.988,-4.6953 2.625,-8.8008 4.918,-12.3008 2.297,-3.5039 5.375,-6.2891 9.238,-8.3398 3.864,-2.0664 8.676,-3.0899 14.434,-3.0899 5.254,0 9.805,0.9375 13.672,2.8164 3.863,1.8789 7.035,4.5157 9.511,7.9102 2.481,3.3945 4.301,7.4414 5.469,12.1367 1.164,4.6953 1.75,9.8633 1.75,15.4961" /><path
         id="path52"
         style="fill:#20201c;fill-opacity:1;fill-rule:nonzero;stroke:none"
         d="m 950.258,57.875 c 0,-1.2305 -0.035,-2.2969 -0.106,-3.1953 -0.07,-0.9063 -0.203,-1.668 -0.382,-2.2813 -0.18,-0.6132 -0.399,-1.1562 -0.653,-1.6171 -0.254,-0.4805 -0.828,-1.1641 -1.734,-2.0665 -0.903,-0.9023 -2.434,-2.0234 -4.602,-3.3554 -2.168,-1.3399 -4.601,-2.5352 -7.316,-3.5781 -2.703,-1.0508 -5.649,-1.8946 -8.828,-2.543 -3.18,-0.6524 -6.465,-0.9766 -9.864,-0.9766 -7.003,0 -13.218,1.1563 -18.636,3.4649 -5.418,2.3164 -9.957,5.6875 -13.602,10.1367 -3.652,4.4375 -6.433,9.8906 -8.34,16.3555 -1.922,6.4687 -2.875,13.9296 -2.875,22.3828 0,9.6054 1.172,17.8594 3.524,24.7654 2.344,6.891 5.558,12.547 9.64,16.953 4.082,4.407 8.883,7.672 14.418,9.805 5.52,2.133 11.504,3.199 17.934,3.199 3.102,0 6.125,-0.289 9.043,-0.867 2.934,-0.578 5.621,-1.336 8.078,-2.273 2.453,-0.942 4.637,-2.024 6.559,-3.254 1.906,-1.227 3.3,-2.274 4.168,-3.141 0.867,-0.867 1.464,-1.555 1.785,-2.059 0.332,-0.507 0.597,-1.105 0.816,-1.792 0.215,-0.684 0.36,-1.458 0.434,-2.325 0.07,-0.867 0.109,-1.953 0.109,-3.254 0,-2.816 -0.328,-4.789 -0.976,-5.906 -0.653,-1.121 -1.446,-1.68 -2.383,-1.68 -1.086,0 -2.336,0.594 -3.739,1.793 -1.414,1.184 -3.195,2.508 -5.363,3.954 -2.168,1.445 -4.793,2.765 -7.855,3.949 -3.078,1.203 -6.707,1.793 -10.895,1.793 -8.597,0 -15.191,-3.309 -19.781,-9.91 -4.586,-6.618 -6.879,-16.207 -6.879,-28.7778 0,-6.2812 0.594,-11.7969 1.793,-16.5195 1.188,-4.7383 2.941,-8.6914 5.254,-11.8711 2.309,-3.1758 5.152,-5.5469 8.5,-7.1016 3.367,-1.5507 7.211,-2.3242 11.547,-2.3242 4.117,0 7.73,0.6485 10.836,1.9492 3.105,1.3008 5.793,2.7227 8.078,4.2774 2.265,1.5547 4.18,2.9609 5.734,4.2344 1.555,1.2539 2.77,1.8906 3.633,1.8906 0.508,0 0.941,-0.1446 1.301,-0.4336 0.363,-0.2891 0.664,-0.7813 0.918,-1.457 0.254,-0.6954 0.433,-1.5625 0.551,-2.6016 0.101,-1.0547 0.156,-2.2969 0.156,-3.7422" /><path
         id="path54"
         style="fill:#20201c;fill-opacity:1;fill-rule:nonzero;stroke:none"
         d="m 993.93,173.5 c 0,-4.187 -0.793,-7.043 -2.383,-8.562 -1.59,-1.516 -4.516,-2.274 -8.777,-2.274 -4.192,0 -7.067,0.738 -8.614,2.215 -1.558,1.484 -2.332,4.285 -2.332,8.406 0,4.188 0.797,7.043 2.383,8.559 1.59,1.519 4.516,2.273 8.781,2.273 4.188,0 7.055,-0.742 8.61,-2.219 1.55,-1.484 2.332,-4.277 2.332,-8.398 z M 991.871,43.0273 c 0,-0.5781 -0.144,-1.0703 -0.433,-1.4648 -0.29,-0.3984 -0.758,-0.7383 -1.411,-1.0273 -0.648,-0.2891 -1.55,-0.5039 -2.707,-0.6485 -1.156,-0.1445 -2.636,-0.2148 -4.441,-0.2148 -1.734,0 -3.18,0.0703 -4.336,0.2148 -1.156,0.1446 -2.078,0.3594 -2.766,0.6485 -0.687,0.289 -1.156,0.6289 -1.402,1.0273 -0.262,0.3945 -0.383,0.8867 -0.383,1.4648 v 97.5277 c 0,0.508 0.121,0.976 0.383,1.41 0.246,0.433 0.715,0.793 1.402,1.086 0.688,0.289 1.61,0.504 2.766,0.648 1.156,0.145 2.602,0.219 4.336,0.219 1.805,0 3.285,-0.074 4.441,-0.219 1.157,-0.144 2.059,-0.359 2.707,-0.648 0.653,-0.293 1.121,-0.653 1.411,-1.086 0.289,-0.434 0.433,-0.902 0.433,-1.41 V 43.0273" /><path
         id="path56"
         style="fill:#20201c;fill-opacity:1;fill-rule:nonzero;stroke:none"
         d="m 1098.39,42.9219 c 0,-0.8672 -0.28,-1.5196 -0.86,-1.9531 -0.58,-0.4336 -1.37,-0.7579 -2.39,-0.9766 -1.01,-0.2149 -2.49,-0.3203 -4.44,-0.3203 -1.88,0 -3.38,0.1054 -4.49,0.3203 -1.13,0.2187 -1.94,0.543 -2.44,0.9766 -0.51,0.4335 -0.76,1.0859 -0.76,1.9531 v 9.75 c -4.26,-4.5508 -9.02,-8.0899 -14.26,-10.6172 -5.23,-2.5313 -10.78,-3.793 -16.63,-3.793 -5.12,0 -9.77,0.6719 -13.92,2 -4.16,1.336 -7.69,3.2735 -10.63,5.8008 -2.91,2.5313 -5.19,5.6328 -6.82,9.3203 -1.62,3.6836 -2.44,7.8711 -2.44,12.5703 0,5.4883 1.12,10.2578 3.36,14.3047 2.24,4.043 5.46,7.4063 9.65,10.0742 4.19,2.6758 9.32,4.6758 15.38,6.0118 6.07,1.3398 12.9,2.0112 20.48,2.0112 h 13.45 v 7.586 c 0,3.754 -0.4,7.079 -1.2,9.965 -0.79,2.895 -2.08,5.293 -3.84,7.211 -1.78,1.91 -4.07,3.352 -6.89,4.336 -2.82,0.965 -6.28,1.461 -10.4,1.461 -4.41,0 -8.37,-0.527 -11.87,-1.578 -3.5,-1.047 -6.57,-2.203 -9.2,-3.465 -2.65,-1.266 -4.85,-2.422 -6.62,-3.469 -1.77,-1.047 -3.09,-1.566 -3.95,-1.566 -0.58,0 -1.09,0.144 -1.52,0.434 -0.43,0.289 -0.82,0.718 -1.13,1.3 -0.33,0.575 -0.57,1.313 -0.71,2.219 -0.15,0.899 -0.22,1.899 -0.22,2.981 0,1.804 0.13,3.23 0.38,4.285 0.25,1.039 0.86,2.035 1.84,2.976 0.97,0.938 2.66,2.035 5.04,3.309 2.39,1.258 5.13,2.414 8.24,3.465 3.1,1.043 6.5,1.91 10.19,2.601 3.68,0.68 7.4,1.028 11.16,1.028 7,0 12.96,-0.797 17.87,-2.383 4.92,-1.59 8.89,-3.926 11.93,-6.996 3.03,-3.071 5.23,-6.875 6.61,-11.426 1.37,-4.555 2.05,-9.863 2.05,-15.93 z m -17.76,44.5351 h -15.29 c -4.91,0 -9.17,-0.4179 -12.79,-1.2461 -3.6,-0.832 -6.6,-2.0546 -8.99,-3.6875 -2.38,-1.6171 -4.14,-3.5703 -5.25,-5.8515 -1.13,-2.2696 -1.68,-4.8906 -1.68,-7.8516 0,-5.0586 1.6,-9.0898 4.82,-12.0859 3.21,-3 7.71,-4.4961 13.49,-4.4961 4.7,0 9.05,1.1914 13.06,3.5781 4,2.3828 8.21,6.0313 12.63,10.9453 V 87.457" /><path
         id="path58"
         style="fill:#20201c;fill-opacity:1;fill-rule:nonzero;stroke:none"
         d="m 1149.11,43.0273 c 0,-0.5781 -0.15,-1.0703 -0.43,-1.4648 -0.29,-0.3984 -0.76,-0.7383 -1.41,-1.0273 -0.65,-0.2891 -1.56,-0.5039 -2.71,-0.6485 -1.16,-0.1445 -2.64,-0.2148 -4.45,-0.2148 -1.73,0 -3.17,0.0703 -4.33,0.2148 -1.15,0.1446 -2.08,0.3594 -2.77,0.6485 -0.68,0.289 -1.15,0.6289 -1.4,1.0273 -0.26,0.3945 -0.38,0.8867 -0.38,1.4648 V 187.805 c 0,0.578 0.12,1.082 0.38,1.515 0.25,0.434 0.72,0.797 1.4,1.082 0.69,0.293 1.62,0.508 2.77,0.653 1.16,0.144 2.6,0.215 4.33,0.215 1.81,0 3.29,-0.071 4.45,-0.215 1.15,-0.145 2.06,-0.36 2.71,-0.653 0.65,-0.285 1.12,-0.648 1.41,-1.082 0.28,-0.433 0.43,-0.937 0.43,-1.515 V 43.0273" /><path
         id="path60"
         style="fill:#20201c;fill-opacity:1;fill-rule:nonzero;stroke:none"
         d="m 1312.41,48.0117 c 0,-1.3008 -0.07,-2.4336 -0.21,-3.414 -0.15,-0.9688 -0.4,-1.7852 -0.76,-2.4375 -0.36,-0.6485 -0.78,-1.1172 -1.25,-1.4063 -0.47,-0.2891 -0.99,-0.4336 -1.56,-0.4336 h -67.3 c -1.66,0 -3.24,0.5547 -4.71,1.6758 -1.49,1.1172 -2.23,3.0898 -2.23,5.9102 V 172.957 c 0,2.82 0.74,4.785 2.23,5.91 1.47,1.113 3.05,1.676 4.71,1.676 h 66.53 c 0.58,0 1.1,-0.145 1.58,-0.434 0.46,-0.289 0.85,-0.757 1.13,-1.406 0.29,-0.652 0.52,-1.469 0.7,-2.437 0.19,-0.981 0.28,-2.188 0.28,-3.633 0,-1.301 -0.09,-2.434 -0.28,-3.418 -0.18,-0.969 -0.41,-1.77 -0.7,-2.383 -0.28,-0.613 -0.67,-1.062 -1.13,-1.352 -0.48,-0.289 -1,-0.433 -1.58,-0.433 h -54.83 v -43.996 h 47.03 c 0.58,0 1.1,-0.168 1.58,-0.485 0.46,-0.332 0.86,-0.777 1.18,-1.359 0.33,-0.574 0.57,-1.371 0.71,-2.383 0.15,-1.011 0.22,-2.203 0.22,-3.574 0,-1.301 -0.07,-2.422 -0.22,-3.359 -0.14,-0.942 -0.38,-1.7 -0.71,-2.278 -0.32,-0.578 -0.72,-0.996 -1.18,-1.25 -0.48,-0.25 -1,-0.375 -1.58,-0.375 h -47.03 V 55.8164 h 55.6 c 0.57,0 1.09,-0.1445 1.56,-0.4336 0.47,-0.289 0.89,-0.7461 1.25,-1.3515 0.36,-0.6211 0.61,-1.4141 0.76,-2.3868 0.14,-0.9804 0.21,-2.1875 0.21,-3.6328" /><path
         id="path62"
         style="fill:#20201c;fill-opacity:1;fill-rule:nonzero;stroke:none"
         d="m 1424.25,43.0273 c 0,-0.5781 -0.13,-1.0703 -0.37,-1.4648 -0.27,-0.3984 -0.71,-0.7383 -1.36,-1.0273 -0.66,-0.2891 -1.5,-0.5039 -2.55,-0.6485 -1.05,-0.1445 -2.33,-0.2148 -3.85,-0.2148 -1.66,0 -3.02,0.0703 -4.07,0.2148 -1.04,0.1446 -1.87,0.3594 -2.48,0.6485 -0.62,0.289 -1.03,0.6289 -1.25,1.0273 -0.22,0.3945 -0.32,0.8867 -0.32,1.4648 v 12.8946 c -5.57,-6.1367 -11.06,-10.6172 -16.48,-13.4336 -5.41,-2.8164 -10.91,-4.2266 -16.47,-4.2266 -6.5,0 -11.98,1.0821 -16.41,3.25 -4.45,2.168 -8.04,5.1055 -10.79,8.836 -2.74,3.7109 -4.72,8.0468 -5.9,13.0039 -1.2,4.9414 -1.79,10.957 -1.79,18.039 v 59.1644 c 0,0.582 0.12,1.066 0.37,1.468 0.26,0.391 0.75,0.75 1.47,1.082 0.72,0.321 1.66,0.536 2.82,0.653 1.15,0.101 2.6,0.16 4.33,0.16 1.74,0 3.18,-0.059 4.34,-0.16 1.15,-0.117 2.07,-0.332 2.76,-0.653 0.68,-0.332 1.18,-0.691 1.46,-1.082 0.29,-0.402 0.43,-0.886 0.43,-1.468 V 83.7734 c 0,-5.707 0.42,-10.2812 1.25,-13.707 0.83,-3.4375 2.09,-6.3633 3.8,-8.7812 1.69,-2.4219 3.84,-4.3008 6.44,-5.6368 2.6,-1.3359 5.64,-2 9.1,-2 4.48,0 8.95,1.5899 13.38,4.7696 4.46,3.1758 9.16,7.8359 14.15,13.9765 v 68.1605 c 0,0.582 0.12,1.066 0.38,1.468 0.25,0.391 0.74,0.75 1.46,1.082 0.72,0.321 1.64,0.536 2.77,0.653 1.11,0.101 2.58,0.16 4.38,0.16 1.74,0 3.18,-0.059 4.34,-0.16 1.16,-0.117 2.06,-0.332 2.71,-0.653 0.65,-0.332 1.14,-0.691 1.46,-1.082 0.33,-0.402 0.49,-0.886 0.49,-1.468 V 43.0273" /><path
         id="path64"
         style="fill:#20201c;fill-opacity:1;fill-rule:nonzero;stroke:none"
         d="m 1514.3,134.164 c 0,-1.59 -0.04,-2.926 -0.11,-4.012 -0.07,-1.082 -0.21,-1.933 -0.43,-2.55 -0.22,-0.614 -0.49,-1.082 -0.81,-1.399 -0.33,-0.332 -0.78,-0.492 -1.36,-0.492 -0.57,0 -1.29,0.16 -2.11,0.492 -0.84,0.317 -1.78,0.649 -2.82,0.969 -1.05,0.332 -2.22,0.637 -3.52,0.922 -1.3,0.289 -2.71,0.433 -4.23,0.433 -1.8,0 -3.57,-0.359 -5.31,-1.082 -1.73,-0.722 -3.56,-1.914 -5.47,-3.574 -1.92,-1.664 -3.92,-3.867 -6.02,-6.613 -2.09,-2.742 -4.4,-6.102 -6.93,-10.078 V 43.0273 c 0,-0.5781 -0.14,-1.0703 -0.43,-1.4648 -0.29,-0.3984 -0.76,-0.7383 -1.41,-1.0273 -0.65,-0.2891 -1.55,-0.5039 -2.71,-0.6485 -1.15,-0.1445 -2.64,-0.2148 -4.44,-0.2148 -1.74,0 -3.18,0.0703 -4.34,0.2148 -1.15,0.1446 -2.08,0.3594 -2.76,0.6485 -0.69,0.289 -1.16,0.6289 -1.41,1.0273 -0.26,0.3945 -0.38,0.8867 -0.38,1.4648 v 97.5277 c 0,0.582 0.11,1.066 0.33,1.468 0.21,0.391 0.64,0.75 1.3,1.082 0.65,0.321 1.48,0.536 2.49,0.653 1.01,0.101 2.35,0.16 4.01,0.16 1.59,0 2.9,-0.059 3.96,-0.16 1.04,-0.117 1.85,-0.332 2.43,-0.653 0.58,-0.332 0.99,-0.691 1.25,-1.082 0.25,-0.402 0.38,-0.886 0.38,-1.468 v -14.196 c 2.67,3.903 5.18,7.082 7.53,9.539 2.34,2.457 4.57,4.391 6.66,5.793 2.1,1.414 4.17,2.383 6.24,2.934 2.05,0.535 4.13,0.809 6.23,0.809 0.93,0 2,-0.059 3.19,-0.157 1.2,-0.117 2.44,-0.312 3.74,-0.605 1.3,-0.285 2.47,-0.613 3.53,-0.973 1.04,-0.359 1.78,-0.722 2.21,-1.082 0.43,-0.363 0.72,-0.711 0.87,-1.027 0.15,-0.332 0.27,-0.746 0.39,-1.25 0.09,-0.504 0.17,-1.25 0.21,-2.215 0.03,-0.984 0.05,-2.301 0.05,-3.961" /><path
         id="path66"
         style="fill:#20201c;fill-opacity:1;fill-rule:nonzero;stroke:none"
         d="m 1622.71,92.875 c 0,-7.9453 -1.05,-15.2617 -3.14,-21.9414 -2.1,-6.6875 -5.23,-12.4453 -9.37,-17.2852 -4.16,-4.8398 -9.37,-8.6171 -15.61,-11.3203 -6.26,-2.7148 -13.49,-4.0664 -21.73,-4.0664 -8.02,0 -15.01,1.1914 -20.97,3.5742 -5.96,2.3868 -10.93,5.8516 -14.9,10.4024 -3.97,4.5508 -6.94,10.0781 -8.88,16.582 -1.95,6.5 -2.93,13.8711 -2.93,22.1055 0,7.9453 1.03,15.2582 3.09,21.9412 2.05,6.684 5.16,12.446 9.32,17.285 4.15,4.84 9.34,8.598 15.55,11.274 6.21,2.672 13.47,4.008 21.78,4.008 8.02,0 15.01,-1.192 20.97,-3.575 5.95,-2.386 10.93,-5.855 14.9,-10.406 3.98,-4.551 6.95,-10.078 8.94,-16.578 1.98,-6.504 2.98,-13.836 2.98,-22 z m -18.53,-1.1914 c 0,5.2734 -0.49,10.2574 -1.47,14.9574 -1,4.691 -2.61,8.812 -4.87,12.351 -2.27,3.539 -5.33,6.344 -9.19,8.395 -3.86,2.066 -8.67,3.093 -14.43,3.093 -5.33,0 -9.9,-0.941 -13.73,-2.82 -3.83,-1.875 -6.97,-4.535 -9.45,-7.961 -2.48,-3.437 -4.32,-7.496 -5.52,-12.195 -1.21,-4.695 -1.81,-9.8243 -1.81,-15.3868 0,-5.3438 0.49,-10.3672 1.47,-15.0625 1,-4.6953 2.64,-8.8008 4.93,-12.3008 2.29,-3.5039 5.37,-6.2891 9.23,-8.3398 3.87,-2.0664 8.68,-3.0899 14.44,-3.0899 5.25,0 9.8,0.9375 13.67,2.8164 3.86,1.8789 7.03,4.5157 9.51,7.9102 2.48,3.3945 4.3,7.4414 5.47,12.1367 1.16,4.6953 1.75,9.8633 1.75,15.4961" /><path
         id="path68"
         style="fill:#20201c;fill-opacity:1;fill-rule:nonzero;stroke:none"
         d="m 1738.77,93.3086 c 0,-8.5234 -0.92,-16.1797 -2.77,-22.9727 -1.84,-6.789 -4.55,-12.5546 -8.12,-17.2851 -3.58,-4.7344 -8,-8.3828 -13.28,-10.9375 -5.27,-2.5664 -11.3,-3.8516 -18.1,-3.8516 -2.88,0 -5.56,0.2891 -8.01,0.8633 -2.46,0.582 -4.86,1.4844 -7.2,2.7109 -2.36,1.2305 -4.69,2.7813 -7,4.6602 -2.31,1.8789 -4.77,4.082 -7.37,6.6094 V 4.34375 c 0,-0.57812 -0.14,-1.08594 -0.43,-1.51953 -0.29,-0.43359 -0.76,-0.79297 -1.41,-1.08203 -0.65,-0.28906 -1.55,-0.50781 -2.71,-0.65235 -1.16,-0.140621 -2.64,-0.21484 -4.44,-0.21484 -1.73,0 -3.18,0.074219 -4.34,0.21484 -1.15,0.14454 -2.08,0.36329 -2.77,0.65235 -0.68,0.28906 -1.15,0.64844 -1.39,1.08203 -0.27,0.43359 -0.39,0.94141 -0.39,1.51953 V 140.555 c 0,0.652 0.11,1.172 0.33,1.57 0.21,0.398 0.65,0.742 1.3,1.031 0.65,0.289 1.48,0.485 2.49,0.602 1.01,0.101 2.24,0.16 3.68,0.16 1.52,0 2.77,-0.059 3.74,-0.16 0.98,-0.117 1.79,-0.313 2.44,-0.602 0.65,-0.289 1.1,-0.633 1.36,-1.031 0.25,-0.398 0.37,-0.918 0.37,-1.57 v -13.11 c 2.96,3.035 5.82,5.672 8.56,7.91 2.75,2.243 5.51,4.094 8.29,5.586 2.78,1.473 5.64,2.598 8.57,3.352 2.92,0.766 6.01,1.141 9.26,1.141 7.08,0 13.11,-1.375 18.1,-4.118 4.98,-2.746 9.05,-6.503 12.18,-11.269 3.16,-4.77 5.45,-10.317 6.89,-16.633 1.45,-6.328 2.17,-13.023 2.17,-20.1054 z M 1720.24,91.25 c 0,4.9844 -0.38,9.813 -1.15,14.465 -0.76,4.668 -2.07,8.801 -3.92,12.41 -1.85,3.613 -4.35,6.504 -7.47,8.672 -3.13,2.164 -7.02,3.25 -11.66,3.25 -2.33,0 -4.63,-0.348 -6.88,-1.027 -2.25,-0.696 -4.54,-1.778 -6.86,-3.25 -2.34,-1.489 -4.76,-3.442 -7.31,-5.852 -2.54,-2.43 -5.24,-5.402 -8.07,-8.945 V 72.1758 c 4.94,-5.9961 9.63,-10.582 14.07,-13.7578 4.43,-3.1797 9.09,-4.7696 13.96,-4.7696 4.5,0 8.37,1.0821 11.6,3.25 3.24,2.168 5.86,5.0586 7.86,8.668 1.99,3.6133 3.47,7.6602 4.41,12.1406 0.95,4.4766 1.42,8.9922 1.42,13.543" /><path
         id="path70"
         style="fill:#20201c;fill-opacity:1;fill-rule:nonzero;stroke:none"
         d="m 1848.87,96.0195 c 0,-2.8203 -0.71,-4.8242 -2.13,-6.0117 -1.41,-1.1992 -3.03,-1.793 -4.84,-1.793 h -64.23 c 0,-5.4179 0.54,-10.2929 1.63,-14.6289 1.09,-4.332 2.91,-8.0546 5.45,-11.1601 2.54,-3.1055 5.85,-5.4883 9.9,-7.1524 4.07,-1.6601 9.05,-2.4921 14.92,-2.4921 4.65,0 8.79,0.3828 12.42,1.1328 3.63,0.7656 6.77,1.6132 9.42,2.5507 2.65,0.9415 4.83,1.7852 6.53,2.5508 1.71,0.7539 2.99,1.1328 3.87,1.1328 0.51,0 0.96,-0.1289 1.36,-0.3789 0.4,-0.2539 0.7,-0.6289 0.93,-1.1367 0.22,-0.5039 0.38,-1.2109 0.48,-2.1172 0.11,-0.9023 0.17,-2 0.17,-3.3008 0,-0.9375 -0.04,-1.7578 -0.11,-2.4335 -0.07,-0.6954 -0.16,-1.3047 -0.28,-1.8516 -0.09,-0.5313 -0.28,-1.0234 -0.53,-1.4609 -0.26,-0.4297 -0.58,-0.8516 -0.98,-1.2383 -0.4,-0.4063 -1.57,-1.0586 -3.52,-1.9492 -1.95,-0.9141 -4.48,-1.793 -7.58,-2.6641 -3.11,-0.8633 -6.71,-1.6367 -10.79,-2.3242 -4.08,-0.6875 -8.43,-1.0313 -13.05,-1.0313 -8.02,0 -15.05,1.1172 -21.08,3.3555 -6.04,2.2422 -11.11,5.5664 -15.22,9.9726 -4.13,4.4063 -7.23,9.9336 -9.32,16.5782 -2.1,6.6484 -3.15,14.3789 -3.15,23.1914 0,8.3789 1.08,15.9106 3.25,22.5896 2.17,6.684 5.29,12.356 9.37,17.024 4.08,4.652 9.02,8.234 14.79,10.718 5.79,2.5 12.25,3.743 19.41,3.743 7.65,0 14.17,-1.231 19.55,-3.684 5.38,-2.457 9.81,-5.77 13.28,-9.91 3.47,-4.164 6.01,-9.043 7.64,-14.641 1.62,-5.597 2.44,-11.57 2.44,-17.9295 z m -17.99,5.3085 c 0.22,9.395 -1.88,16.762 -6.27,22.11 -4.4,5.343 -10.93,8.015 -19.57,8.015 -4.44,0 -8.33,-0.828 -11.67,-2.492 -3.35,-1.66 -6.14,-3.863 -8.39,-6.609 -2.26,-2.747 -4,-5.946 -5.23,-9.586 -1.24,-3.657 -1.93,-7.465 -2.08,-11.438 h 53.21" /><path
         id="path72"
         style="fill:#20201c;fill-opacity:1;fill-rule:nonzero;stroke:none"
         d="m 1966.77,92.875 c 0,-7.9453 -1.05,-15.2617 -3.14,-21.9414 -2.1,-6.6875 -5.23,-12.4453 -9.37,-17.2852 -4.17,-4.8398 -9.37,-8.6171 -15.61,-11.3203 -6.26,-2.7148 -13.49,-4.0664 -21.73,-4.0664 -8.02,0 -15.01,1.1914 -20.97,3.5742 -5.97,2.3868 -10.93,5.8516 -14.9,10.4024 -3.97,4.5508 -6.93,10.0781 -8.89,16.582 -1.95,6.5 -2.92,13.8711 -2.92,22.1055 0,7.9453 1.03,15.2582 3.09,21.9412 2.05,6.684 5.16,12.446 9.32,17.285 4.15,4.84 9.33,8.598 15.55,11.274 6.21,2.672 13.47,4.008 21.78,4.008 8.02,0 15,-1.192 20.97,-3.575 5.95,-2.386 10.93,-5.855 14.9,-10.406 3.97,-4.551 6.95,-10.078 8.94,-16.578 1.98,-6.504 2.98,-13.836 2.98,-22 z m -18.54,-1.1914 c 0,5.2734 -0.48,10.2574 -1.47,14.9574 -0.99,4.691 -2.6,8.812 -4.87,12.351 -2.26,3.539 -5.32,6.344 -9.18,8.395 -3.86,2.066 -8.67,3.093 -14.43,3.093 -5.33,0 -9.9,-0.941 -13.73,-2.82 -3.83,-1.875 -6.98,-4.535 -9.45,-7.961 -2.48,-3.437 -4.33,-7.496 -5.53,-12.195 -1.2,-4.695 -1.8,-9.8243 -1.8,-15.3868 0,-5.3438 0.49,-10.3672 1.47,-15.0625 0.99,-4.6953 2.64,-8.8008 4.92,-12.3008 2.3,-3.5039 5.38,-6.2891 9.24,-8.3398 3.87,-2.0664 8.68,-3.0899 14.44,-3.0899 5.25,0 9.8,0.9375 13.67,2.8164 3.86,1.8789 7.03,4.5157 9.51,7.9102 2.48,3.3945 4.3,7.4414 5.47,12.1367 1.16,4.6953 1.74,9.8633 1.74,15.4961" /><path
         id="path74"
         style="fill:#254aa5;fill-opacity:1;fill-rule:nonzero;stroke:none"
         d="M 2.83203,3616.04 H 4198.85 V 818.656 H 2.83203 V 3616.04" /><path
         id="path76"
         style="fill:#f7e738;fill-opacity:1;fill-rule:nonzero;stroke:none"
         d="m 2011.43,3006.54 88.53,64.61 88.55,-64.61 -33.69,104.49 89.93,64.63 H 2133.9 l -33.94,105.75 -33.92,-105.88 -110.79,0.13 89.87,-64.63 -33.69,-104.49" /><path
         id="path78"
         style="fill:#f7e738;fill-opacity:1;fill-rule:nonzero;stroke:none"
         d="m 1553.23,2883.44 88.51,64.61 88.52,-64.61 -33.68,104.49 89.92,64.62 h -110.89 l -33.9,105.88 -33.91,-106 -110.83,0.12 89.86,-64.62 -33.6,-104.49" /><path
         id="path80"
         style="fill:#f7e738;fill-opacity:1;fill-rule:nonzero;stroke:none"
         d="m 1306.51,2822.41 -33.93,-106 -110.79,0.13 89.87,-64.62 -33.69,-104.5 88.54,64.61 88.5,-64.61 -33.66,104.5 89.84,64.62 h -110.76 l -33.92,105.87" /><path
         id="path82"
         style="fill:#f7e738;fill-opacity:1;fill-rule:nonzero;stroke:none"
         d="m 1183.52,2154.42 88.46,-64.62 -33.61,104.49 89.83,64.61 h -110.75 l -33.93,105.89 -33.93,-106.11 -110.85,0.22 89.94,-64.61 -33.7,-104.49 88.54,64.62" /><path
         id="path84"
         style="fill:#f7e738;fill-opacity:1;fill-rule:nonzero;stroke:none"
         d="m 1340.43,1799.9 -33.92,105.87 -33.93,-105.99 -110.79,0.12 89.87,-64.61 -33.69,-104.5 88.54,64.73 88.5,-64.73 -33.66,104.5 89.84,64.61 h -110.76" /><path
         id="path86"
         style="fill:#f7e738;fill-opacity:1;fill-rule:nonzero;stroke:none"
         d="m 1676.33,1464 -33.92,105.76 -33.87,-105.88 -110.85,0.12 89.87,-64.62 -33.63,-104.5 88.53,64.63 88.46,-64.63 -33.6,104.5 89.87,64.62 h -110.86" /><path
         id="path88"
         style="fill:#f7e738;fill-opacity:1;fill-rule:nonzero;stroke:none"
         d="m 2133.95,1342.29 -33.92,105.87 -33.87,-105.99 -110.85,0.12 89.87,-64.61 -33.63,-104.51 88.54,64.63 88.48,-64.63 -33.69,104.51 89.92,64.61 h -110.85" /><path
         id="path90"
         style="fill:#f7e738;fill-opacity:1;fill-rule:nonzero;stroke:none"
         d="m 2591.57,1464 -33.86,105.76 -33.99,-105.88 -110.73,0.12 89.81,-64.62 -33.64,-104.5 88.55,64.63 88.54,-64.63 -33.76,104.5 89.93,64.62 h -110.85" /><path
         id="path92"
         style="fill:#f7e738;fill-opacity:1;fill-rule:nonzero;stroke:none"
         d="m 2927.59,1799.9 -33.98,105.87 -33.98,-105.99 -110.74,0.12 89.93,-64.61 -33.75,-104.5 88.54,64.73 88.51,-64.73 -33.72,104.5 89.92,64.61 h -110.73" /><path
         id="path94"
         style="fill:#f7e738;fill-opacity:1;fill-rule:nonzero;stroke:none"
         d="m 3160.04,2260.18 h -110.85 l -33.98,105.87 -33.87,-105.99 -110.85,0.12 89.93,-64.61 -33.64,-104.5 88.43,64.72 88.52,-64.72 -33.62,104.5 89.93,64.61" /><path
         id="path96"
         style="fill:#f7e738;fill-opacity:1;fill-rule:nonzero;stroke:none"
         d="m 2805.07,2548.8 88.54,64.61 88.54,-64.61 -33.74,104.49 89.9,64.51 h -110.72 l -33.98,105.88 -33.97,-106 -110.75,0.12 89.93,-64.51 -33.75,-104.49" /><path
         id="path98"
         style="fill:#f7e738;fill-opacity:1;fill-rule:nonzero;stroke:none"
         d="m 2558.98,3158.31 -33.87,-105.99 -110.85,0.23 89.81,-64.73 -33.64,-104.5 88.66,64.73 88.43,-64.73 -33.64,104.5 89.93,64.73 h -110.97 l -33.86,105.76" /></g></g></svg>