<?xml version="1.0" encoding="UTF-8" standalone="no"?>
<svg
   xmlns:dc="http://purl.org/dc/elements/1.1/"
   xmlns:cc="http://creativecommons.org/ns#"
   xmlns:rdf="http://www.w3.org/1999/02/22-rdf-syntax-ns#"
   xmlns:svg="http://www.w3.org/2000/svg"
   xmlns="http://www.w3.org/2000/svg"
   viewBox="0 0 1041.3333 194.66667"
   height="194.66667"
   width="1041.3333"
   xml:space="preserve"
   id="svg2"
   version="1.1"><metadata
     id="metadata8"><rdf:RDF><cc:Work
         rdf:about=""><dc:format>image/svg+xml</dc:format><dc:type
           rdf:resource="http://purl.org/dc/dcmitype/StillImage" /></cc:Work></rdf:RDF></metadata><defs
     id="defs6" /><g
     transform="matrix(1.3333333,0,0,-1.3333333,0,194.66667)"
     id="g10"><g
       transform="scale(0.1)"
       id="g12"><path
         id="path14"
         style="fill:#254aa5;fill-opacity:1;fill-rule:nonzero;stroke:none"
         d="M 7.30469,1405.75 H 2101.46 V 9.58203 H 7.30469 V 1405.75" /><path
         id="path16"
         style="fill:#fff200;fill-opacity:1;fill-rule:nonzero;stroke:none"
         d="m 1009.75,1101.53 44.18,32.26 44.2,-32.26 -16.82,52.14 44.87,32.26 h -55.34 l -16.91,52.81 -16.94,-52.85 -55.252,0.04 44.812,-32.26 -16.8,-52.14" /><path
         id="path18"
         style="fill:#fff200;fill-opacity:1;fill-rule:nonzero;stroke:none"
         d="m 781.047,1040.11 44.226,32.21 44.161,-32.21 -16.829,52.14 44.879,32.27 h -55.347 l -16.864,52.85 -16.988,-52.95 -55.301,0.1 44.856,-32.27 -16.793,-52.14" /><path
         id="path20"
         style="fill:#fff200;fill-opacity:1;fill-rule:nonzero;stroke:none"
         d="m 657.938,1009.63 -16.942,-52.9 -55.293,0.047 44.856,-32.214 -16.805,-52.145 44.184,32.215 44.179,-32.215 -16.801,52.145 44.852,32.214 h -55.293 l -16.937,52.853" /><path
         id="path22"
         style="fill:#fff200;fill-opacity:1;fill-rule:nonzero;stroke:none"
         d="m 596.563,676.254 44.136,-32.215 -16.758,52.121 44.809,32.238 h -55.246 l -16.941,52.852 -16.942,-52.922 -55.348,0.07 44.911,-32.238 -16.848,-52.121 44.227,32.215" /><path
         id="path24"
         style="fill:#fff200;fill-opacity:1;fill-rule:nonzero;stroke:none"
         d="m 674.867,499.344 -16.941,52.851 -16.918,-52.941 -55.293,0.09 44.855,-32.262 -16.797,-52.141 44.153,32.305 44.179,-32.305 -16.804,52.141 44.867,32.262 h -55.301" /><path
         id="path26"
         style="fill:#fff200;fill-opacity:1;fill-rule:nonzero;stroke:none"
         d="m 842.512,331.652 -16.942,52.805 -16.906,-52.852 -55.301,0.047 44.852,-32.214 -16.793,-52.145 44.148,32.262 44.184,-32.262 -16.797,52.145 44.859,32.214 h -55.304" /><path
         id="path28"
         style="fill:#fff200;fill-opacity:1;fill-rule:nonzero;stroke:none"
         d="m 1070.89,270.918 -16.94,52.84 -16.86,-52.883 -55.352,0.043 44.862,-32.258 -16.8,-52.156 44.15,32.269 44.18,-32.269 -16.79,52.156 44.9,32.258 h -55.35" /><path
         id="path30"
         style="fill:#fff200;fill-opacity:1;fill-rule:nonzero;stroke:none"
         d="m 1299.27,331.652 -16.89,52.805 -16.97,-52.852 -55.25,0.047 44.82,-32.214 -16.76,-52.145 44.16,32.262 44.18,-32.262 -16.85,52.145 44.91,32.214 h -55.35" /><path
         id="path32"
         style="fill:#fff200;fill-opacity:1;fill-rule:nonzero;stroke:none"
         d="m 1467.01,499.344 -16.99,52.851 -16.96,-52.941 -55.25,0.09 44.86,-32.262 -16.81,-52.141 44.16,32.305 44.18,-32.305 -16.84,52.141 44.89,32.262 h -55.24" /><path
         id="path34"
         style="fill:#fff200;fill-opacity:1;fill-rule:nonzero;stroke:none"
         d="m 1583,729.047 h -55.3 l -16.98,52.851 -16.92,-52.894 -55.32,0.043 44.85,-32.258 -16.72,-52.144 44.11,32.304 44.17,-32.304 -16.75,52.144 44.86,32.258" /><path
         id="path36"
         style="fill:#fff200;fill-opacity:1;fill-rule:nonzero;stroke:none"
         d="m 1405.86,873.102 44.18,32.261 44.15,-32.261 -16.81,52.144 44.87,32.168 h -55.24 l -16.97,52.856 -16.98,-52.899 -55.26,0.043 44.86,-32.168 -16.8,-52.144" /><path
         id="path38"
         style="fill:#fff200;fill-opacity:1;fill-rule:nonzero;stroke:none"
         d="m 1283.03,1177.27 -16.94,-52.88 -55.3,0.14 44.81,-32.32 -16.8,-52.15 44.27,32.32 44.14,-32.32 -16.81,52.15 44.9,32.32 h -55.38 l -16.89,52.74" /><path
         id="path40"
         style="fill:#20201c;fill-opacity:1;fill-rule:nonzero;stroke:none"
         d="m 2783.48,1044.01 c 0,-27.15 -4,-51.447 -11.98,-72.893 -7.98,-21.445 -19.74,-39.586 -35.25,-54.414 -15.52,-14.828 -34.68,-26.125 -57.5,-33.879 -22.81,-7.761 -49.05,-11.636 -78.71,-11.636 -27.83,0 -52.81,3.476 -74.94,10.437 -22.14,6.957 -40.84,17.512 -56.13,31.656 -15.29,14.145 -26.98,31.77 -35.08,52.875 -8.1,21.106 -12.15,45.804 -12.15,74.094 v 269.33 c 0,2.28 0.69,4.33 2.06,6.16 1.36,1.83 3.82,3.31 7.36,4.45 3.53,1.14 8.15,2.05 13.86,2.74 5.7,0.68 13,1.02 21.9,1.02 8.67,0 15.85,-0.34 21.56,-1.02 5.7,-0.69 10.27,-1.6 13.68,-2.74 3.43,-1.14 5.88,-2.62 7.36,-4.45 1.49,-1.83 2.23,-3.88 2.23,-6.16 v -261.46 c 0,-17.57 2.17,-32.8 6.5,-45.69 4.34,-12.891 10.55,-23.555 18.65,-31.996 8.1,-8.446 17.8,-14.774 29.09,-18.993 11.3,-4.222 23.9,-6.332 37.82,-6.332 14.14,0 26.81,2.164 37.99,6.5 11.17,4.336 20.64,10.664 28.4,18.996 7.76,8.325 13.75,18.594 17.97,30.795 4.22,12.21 6.33,26.07 6.33,41.58 v 266.6 c 0,2.28 0.68,4.33 2.05,6.16 1.37,1.83 3.77,3.31 7.19,4.45 3.42,1.14 8.04,2.05 13.86,2.74 5.82,0.68 13.06,1.02 21.73,1.02 8.67,0 15.8,-0.34 21.39,-1.02 5.59,-0.69 10.1,-1.6 13.52,-2.74 3.42,-1.14 5.81,-2.62 7.19,-4.45 1.36,-1.83 2.05,-3.88 2.05,-6.16 v -265.57" /><path
         id="path42"
         style="fill:#20201c;fill-opacity:1;fill-rule:nonzero;stroke:none"
         d="m 3238.49,910.543 c 0,-5.246 -0.91,-9.926 -2.74,-14.031 -1.82,-4.106 -4.27,-7.532 -7.35,-10.27 -3.08,-2.738 -6.74,-4.734 -10.95,-5.984 -4.22,-1.258 -8.5,-1.887 -12.84,-1.887 h -38.33 c -7.98,0 -14.89,0.801 -20.7,2.399 -5.82,1.597 -11.18,4.503 -16.09,8.726 -4.9,4.223 -9.64,9.922 -14.2,17.109 -4.56,7.188 -9.7,16.485 -15.4,27.895 l -110.2,207.05 c -6.39,12.32 -12.89,25.61 -19.5,39.86 -6.62,14.27 -12.55,28.13 -17.8,41.59 h -0.69 c 0.92,-16.43 1.6,-32.8 2.06,-49.11 0.45,-16.32 0.68,-33.14 0.68,-50.48 V 891.719 c 0,-2.281 -0.62,-4.332 -1.88,-6.16 -1.25,-1.825 -3.42,-3.364 -6.5,-4.618 -3.08,-1.253 -7.25,-2.226 -12.49,-2.91 -5.25,-0.683 -11.98,-1.027 -20.19,-1.027 -7.99,0 -14.61,0.344 -19.85,1.027 -5.25,0.684 -9.36,1.657 -12.32,2.91 -2.97,1.254 -5.02,2.793 -6.16,4.618 -1.14,1.828 -1.72,3.879 -1.72,6.16 v 398.011 c 0,10.72 3.14,18.77 9.42,24.13 6.27,5.36 13.97,8.04 23.1,8.04 h 48.25 c 8.67,0 15.97,-0.74 21.9,-2.22 5.94,-1.49 11.24,-3.94 15.92,-7.36 4.67,-3.42 9.06,-8.16 13.17,-14.21 4.11,-6.04 8.33,-13.51 12.67,-22.41 L 3104,1113.82 c 5.02,-9.8 9.98,-19.44 14.88,-28.91 4.91,-9.47 9.64,-18.94 14.21,-28.41 4.56,-9.46 9.01,-18.76 13.34,-27.89 4.34,-9.13 8.56,-18.25 12.66,-27.38 h 0.35 c -0.69,15.97 -1.2,32.63 -1.55,49.97 -0.34,17.34 -0.5,33.88 -0.5,49.62 v 207.73 c 0,2.29 0.68,4.34 2.05,6.16 1.36,1.83 3.65,3.43 6.84,4.79 3.2,1.38 7.42,2.34 12.67,2.91 5.24,0.57 11.97,0.86 20.19,0.86 7.75,0 14.25,-0.29 19.5,-0.86 5.25,-0.57 9.3,-1.53 12.15,-2.91 2.85,-1.36 4.85,-2.96 5.99,-4.79 1.14,-1.82 1.71,-3.87 1.71,-6.16 V 910.543" /><path
         id="path44"
         style="fill:#20201c;fill-opacity:1;fill-rule:nonzero;stroke:none"
         d="m 3419.04,891.379 c 0,-2.281 -0.74,-4.336 -2.22,-6.16 -1.49,-1.824 -3.94,-3.309 -7.36,-4.449 -3.42,-1.141 -7.99,-2.055 -13.69,-2.739 -5.71,-0.683 -13.01,-1.027 -21.9,-1.027 -8.67,0 -15.92,0.344 -21.74,1.027 -5.81,0.684 -10.43,1.598 -13.86,2.739 -3.42,1.14 -5.87,2.625 -7.35,4.449 -1.49,1.824 -2.23,3.879 -2.23,6.16 v 418.201 c 0,2.28 0.74,4.33 2.23,6.16 1.48,1.83 3.99,3.31 7.53,4.45 3.53,1.14 8.15,2.05 13.85,2.74 5.71,0.68 12.9,1.02 21.57,1.02 8.89,0 16.19,-0.34 21.9,-1.02 5.7,-0.69 10.27,-1.6 13.69,-2.74 3.42,-1.14 5.87,-2.62 7.36,-4.45 1.48,-1.83 2.22,-3.88 2.22,-6.16 V 891.379" /><path
         id="path46"
         style="fill:#20201c;fill-opacity:1;fill-rule:nonzero;stroke:none"
         d="m 3907.59,1105.61 c 0,-36.73 -4.56,-69.58 -13.69,-98.56 -9.12,-28.976 -22.7,-53.558 -40.72,-73.749 -18.02,-20.192 -40.33,-35.59 -66.91,-46.199 -26.58,-10.61 -57.32,-15.914 -92.23,-15.914 -34.45,0 -64.51,4.503 -90.17,13.515 -25.67,9.016 -47.06,22.758 -64.17,41.242 -17.11,18.477 -29.95,41.977 -38.5,70.496 -8.56,28.519 -12.84,62.289 -12.84,101.299 0,35.82 4.57,68.05 13.69,96.68 9.13,28.63 22.7,52.99 40.73,73.06 18.02,20.08 40.33,35.48 66.9,46.21 26.58,10.72 57.44,16.08 92.58,16.08 33.53,0 63.14,-4.45 88.81,-13.34 25.66,-8.9 47.11,-22.59 64.33,-41.07 17.23,-18.48 30.23,-41.81 39.02,-69.99 8.78,-28.17 13.17,-61.43 13.17,-99.76 z m -94.45,-4.79 c 0,23.27 -1.83,44.43 -5.48,63.48 -3.65,19.06 -9.86,35.37 -18.65,48.94 -8.78,13.58 -20.47,24.07 -35.08,31.49 -14.6,7.41 -32.85,11.12 -54.75,11.12 -22.14,0 -40.61,-4.17 -55.45,-12.49 -14.82,-8.33 -26.8,-19.45 -35.93,-33.37 -9.12,-13.91 -15.57,-30.17 -19.34,-48.76 -3.76,-18.6 -5.64,-38.28 -5.64,-59.04 0,-24.19 1.82,-45.92 5.47,-65.19 3.66,-19.28 9.82,-35.77 18.49,-49.457 8.67,-13.691 20.3,-24.125 34.9,-31.313 14.6,-7.187 32.97,-10.781 55.1,-10.781 22.13,0 40.61,4.106 55.44,12.321 14.83,8.21 26.81,19.39 35.94,33.539 9.12,14.141 15.57,30.631 19.33,49.451 3.76,18.82 5.65,38.84 5.65,60.06 z m -92.75,340.52 c 2.97,3.42 5.88,6.16 8.73,8.21 2.85,2.06 6.27,3.65 10.27,4.79 3.99,1.14 8.84,1.88 14.54,2.23 5.71,0.34 12.78,0.51 21.22,0.51 10.5,0 18.65,-0.69 24.47,-2.06 5.82,-1.36 9.81,-3.13 11.98,-5.3 2.17,-2.17 2.68,-4.62 1.54,-7.36 -1.14,-2.73 -3.31,-5.59 -6.5,-8.55 l -75.98,-68.45 c -2.28,-2.05 -4.62,-3.82 -7.02,-5.3 -2.39,-1.49 -5.3,-2.74 -8.72,-3.77 -3.42,-1.02 -7.53,-1.76 -12.32,-2.22 -4.79,-0.46 -10.72,-0.68 -17.8,-0.68 -7.76,0 -13.97,0.34 -18.65,1.02 -4.68,0.69 -7.99,1.77 -9.92,3.25 -1.94,1.48 -2.68,3.37 -2.23,5.65 0.46,2.28 2.05,5.02 4.79,8.21 l 61.6,69.82" /><path
         id="path48"
         style="fill:#20201c;fill-opacity:1;fill-rule:nonzero;stroke:none"
         d="m 4341.38,910.543 c 0,-5.246 -0.92,-9.926 -2.74,-14.031 -1.82,-4.106 -4.28,-7.532 -7.36,-10.27 -3.08,-2.738 -6.73,-4.734 -10.95,-5.984 -4.22,-1.258 -8.5,-1.887 -12.83,-1.887 h -38.34 c -7.98,0 -14.88,0.801 -20.7,2.399 -5.82,1.597 -11.17,4.503 -16.08,8.726 -4.91,4.223 -9.64,9.922 -14.2,17.109 -4.57,7.188 -9.7,16.485 -15.41,27.895 l -110.19,207.05 c -6.39,12.32 -12.89,25.61 -19.51,39.86 -6.61,14.27 -12.55,28.13 -17.79,41.59 h -0.69 c 0.91,-16.43 1.6,-32.8 2.05,-49.11 0.46,-16.32 0.69,-33.14 0.69,-50.48 V 891.719 c 0,-2.281 -0.63,-4.332 -1.88,-6.16 -1.26,-1.825 -3.43,-3.364 -6.5,-4.618 -3.09,-1.253 -7.25,-2.226 -12.5,-2.91 -5.24,-0.683 -11.98,-1.027 -20.19,-1.027 -7.98,0 -14.6,0.344 -19.85,1.027 -5.25,0.684 -9.36,1.657 -12.32,2.91 -2.96,1.254 -5.02,2.793 -6.16,4.618 -1.14,1.828 -1.71,3.879 -1.71,6.16 v 398.011 c 0,10.72 3.14,18.77 9.41,24.13 6.28,5.36 13.98,8.04 23.1,8.04 h 48.25 c 8.68,0 15.98,-0.74 21.91,-2.22 5.93,-1.49 11.24,-3.94 15.91,-7.36 4.68,-3.42 9.07,-8.16 13.18,-14.21 4.11,-6.04 8.33,-13.51 12.66,-22.41 l 86.24,-161.88 c 5.02,-9.8 9.98,-19.44 14.89,-28.91 4.9,-9.47 9.64,-18.94 14.2,-28.41 4.57,-9.46 9.01,-18.76 13.35,-27.89 4.33,-9.13 8.55,-18.25 12.66,-27.38 h 0.34 c -0.68,15.97 -1.19,32.63 -1.53,49.97 -0.35,17.34 -0.52,33.88 -0.52,49.62 v 207.73 c 0,2.29 0.69,4.34 2.05,6.16 1.37,1.83 3.65,3.43 6.84,4.79 3.2,1.38 7.42,2.34 12.67,2.91 5.24,0.57 11.98,0.86 20.19,0.86 7.76,0 14.26,-0.29 19.51,-0.86 5.25,-0.57 9.29,-1.53 12.15,-2.91 2.85,-1.36 4.85,-2.96 5.99,-4.79 1.13,-1.82 1.71,-3.87 1.71,-6.16 V 910.543" /><path
         id="path50"
         style="fill:#20201c;fill-opacity:1;fill-rule:nonzero;stroke:none"
         d="m 4845.49,914.305 c 0,-6.614 -0.28,-12.149 -0.86,-16.594 -0.55,-4.449 -1.42,-8.043 -2.56,-10.781 -1.14,-2.739 -2.56,-4.735 -4.29,-5.989 -1.69,-1.253 -3.56,-1.882 -5.61,-1.882 h -222.46 c -7.53,0 -13.86,2.222 -19,6.671 -5.13,4.45 -7.7,11.696 -7.7,21.731 V 1293.5 c 0,10.04 2.57,17.28 7.7,21.73 5.14,4.45 11.47,6.67 19,6.67 h 221.09 c 2.05,0 3.88,-0.57 5.47,-1.71 1.6,-1.14 2.97,-3.14 4.11,-5.99 1.14,-2.85 1.96,-6.5 2.55,-10.95 0.55,-4.45 0.87,-10.1 0.87,-16.94 0,-6.39 -0.32,-11.81 -0.87,-16.26 -0.59,-4.45 -1.41,-8.04 -2.55,-10.78 -1.14,-2.73 -2.51,-4.73 -4.11,-5.98 -1.59,-1.26 -3.42,-1.89 -5.47,-1.89 h -158.12 v -108.14 h 133.8 c 2.05,0 3.92,-0.63 5.65,-1.88 1.69,-1.26 3.16,-3.2 4.3,-5.83 1.13,-2.62 1.95,-6.15 2.55,-10.6 0.55,-4.45 0.86,-9.87 0.86,-16.26 0,-6.62 -0.31,-12.09 -0.86,-16.42 -0.6,-4.34 -1.42,-7.82 -2.55,-10.44 -1.14,-2.63 -2.61,-4.51 -4.3,-5.65 -1.73,-1.14 -3.6,-1.71 -5.65,-1.71 h -133.8 V 949.555 h 159.49 c 2.05,0 3.92,-0.625 5.61,-1.879 1.73,-1.258 3.15,-3.254 4.29,-5.992 1.14,-2.735 2.01,-6.329 2.56,-10.778 0.58,-4.449 0.86,-9.984 0.86,-16.601" /><path
         id="path52"
         style="fill:#20201c;fill-opacity:1;fill-rule:nonzero;stroke:none"
         d="m 5279.98,1044.01 c 0,-27.15 -3.99,-51.447 -11.97,-72.893 -7.99,-21.445 -19.74,-39.586 -35.26,-54.414 -15.51,-14.828 -34.67,-26.125 -57.49,-33.879 -22.81,-7.761 -49.05,-11.636 -78.71,-11.636 -27.84,0 -52.82,3.476 -74.95,10.437 -22.13,6.957 -40.84,17.512 -56.13,31.656 -15.28,14.145 -26.99,31.77 -35.08,52.875 -8.1,21.106 -12.14,45.804 -12.14,74.094 v 269.33 c 0,2.28 0.68,4.33 2.05,6.16 1.37,1.83 3.81,3.31 7.35,4.45 3.53,1.14 8.16,2.05 13.87,2.74 5.71,0.68 13,1.02 21.9,1.02 8.67,0 15.86,-0.34 21.56,-1.02 5.7,-0.69 10.27,-1.6 13.69,-2.74 3.42,-1.14 5.87,-2.62 7.37,-4.45 1.46,-1.83 2.21,-3.88 2.21,-6.16 v -261.46 c 0,-17.57 2.17,-32.8 6.51,-45.69 4.33,-12.891 10.54,-23.555 18.66,-31.996 8.08,-8.446 17.79,-14.774 29.06,-18.993 11.32,-4.222 23.91,-6.332 37.83,-6.332 14.15,0 26.81,2.164 37.99,6.5 11.18,4.336 20.65,10.664 28.4,18.996 7.76,8.325 13.74,18.594 17.99,30.795 4.19,12.21 6.31,26.07 6.31,41.58 v 266.6 c 0,2.28 0.69,4.33 2.06,6.16 1.37,1.83 3.76,3.31 7.19,4.45 3.42,1.14 8.02,2.05 13.86,2.74 5.8,0.68 13.05,1.02 21.73,1.02 8.66,0 15.79,-0.34 21.39,-1.02 5.57,-0.69 10.09,-1.6 13.51,-2.74 3.42,-1.14 5.82,-2.62 7.19,-4.45 1.37,-1.83 2.05,-3.88 2.05,-6.16 v -265.57" /><path
         id="path54"
         style="fill:#20201c;fill-opacity:1;fill-rule:nonzero;stroke:none"
         d="m 5698.39,890.695 c 0,-2.511 -0.46,-4.621 -1.37,-6.332 -0.91,-1.715 -3.08,-3.136 -6.5,-4.277 -3.43,-1.145 -8.45,-1.941 -15.06,-2.398 -6.61,-0.458 -15.63,-0.684 -27.03,-0.684 -9.59,0 -17.23,0.226 -22.94,0.684 -5.7,0.457 -10.22,1.312 -13.5,2.57 -3.33,1.25 -5.66,2.851 -7.03,4.789 -1.37,1.937 -2.51,4.277 -3.42,7.016 l -39.7,98.902 c -4.79,11.175 -9.47,21.105 -14.03,29.775 -4.56,8.67 -9.65,15.91 -15.22,21.73 -5.61,5.82 -12.04,10.21 -19.35,13.18 -7.3,2.96 -15.74,4.44 -25.32,4.44 h -28.06 V 891.379 c 0,-2.281 -0.76,-4.336 -2.24,-6.16 -1.48,-1.824 -3.92,-3.309 -7.35,-4.449 -3.42,-1.141 -7.98,-2.055 -13.68,-2.739 -5.71,-0.683 -13.01,-1.027 -21.91,-1.027 -8.66,0 -15.93,0.344 -21.72,1.027 -5.84,0.684 -10.45,1.598 -13.87,2.739 -3.42,1.14 -5.82,2.625 -7.19,4.449 -1.36,1.824 -2.05,3.879 -2.05,6.16 V 1293.5 c 0,10.04 2.58,17.28 7.69,21.73 5.16,4.45 11.48,6.67 19,6.67 h 114.65 c 11.64,0 21.22,-0.23 28.75,-0.69 7.52,-0.45 14.37,-1.02 20.53,-1.71 17.8,-2.5 33.82,-6.84 48.1,-13 14.23,-6.16 26.32,-14.2 36.27,-24.13 9.91,-9.92 17.5,-21.67 22.75,-35.25 5.25,-13.57 7.87,-29.14 7.87,-46.71 0,-14.83 -1.87,-28.35 -5.66,-40.55 -3.74,-12.21 -9.28,-23.1 -16.59,-32.69 -7.3,-9.58 -16.31,-17.91 -27.03,-24.98 -10.73,-7.07 -22.93,-12.78 -36.62,-17.11 6.62,-3.19 12.85,-7.08 18.64,-11.64 5.84,-4.56 11.32,-10.09 16.43,-16.6 5.16,-6.5 9.99,-13.91 14.55,-22.24 4.57,-8.33 9.02,-17.74 13.35,-28.23 l 37.31,-87.272 c 3.41,-8.668 5.7,-15 6.84,-18.993 1.14,-3.992 1.71,-7.132 1.71,-9.41 z m -116.01,300.475 c 0,14.6 -3.31,26.92 -9.93,36.96 -6.62,10.04 -17.45,17.11 -32.51,21.22 -4.56,1.14 -9.77,2.05 -15.56,2.74 -5.84,0.68 -13.87,1.02 -24.14,1.02 h -40.38 v -125.59 h 45.85 c 12.78,0 23.96,1.53 33.54,4.61 9.59,3.08 17.57,7.42 23.96,13.01 6.39,5.59 11.18,12.26 14.37,20.02 3.2,7.75 4.8,16.43 4.8,26.01" /><path
         id="path56"
         style="fill:#20201c;fill-opacity:1;fill-rule:nonzero;stroke:none"
         d="m 6156.47,1105.61 c 0,-36.73 -4.56,-69.58 -13.68,-98.56 -9.13,-28.976 -22.71,-53.558 -40.73,-73.749 -18.02,-20.192 -40.34,-35.59 -66.89,-46.199 -26.61,-10.61 -57.34,-15.914 -92.25,-15.914 -34.45,0 -64.5,4.503 -90.19,13.515 -25.64,9.016 -47.04,22.758 -64.15,41.242 -17.11,18.477 -29.94,41.977 -38.51,70.496 -8.53,28.519 -12.82,62.289 -12.82,101.299 0,35.82 4.56,68.05 13.69,96.68 9.12,28.63 22.69,52.99 40.72,73.06 18.02,20.08 40.31,35.48 66.91,46.21 26.56,10.72 57.43,16.08 92.57,16.08 33.53,0 63.13,-4.45 88.82,-13.34 25.64,-8.9 47.09,-22.59 64.34,-41.07 17.2,-18.48 30.2,-41.81 39.01,-69.99 8.76,-28.17 13.16,-61.43 13.16,-99.76 z m -94.45,-4.79 c 0,23.27 -1.82,44.43 -5.48,63.48 -3.65,19.06 -9.88,35.37 -18.64,48.94 -8.81,13.58 -20.49,24.07 -35.09,31.49 -14.6,7.41 -32.85,11.12 -54.75,11.12 -22.13,0 -40.61,-4.17 -55.44,-12.49 -14.83,-8.33 -26.81,-19.45 -35.94,-33.37 -9.12,-13.91 -15.58,-30.17 -19.32,-48.76 -3.79,-18.6 -5.66,-38.28 -5.66,-59.04 0,-24.19 1.82,-45.92 5.48,-65.19 3.64,-19.28 9.8,-35.77 18.48,-49.457 8.66,-13.691 20.3,-24.125 34.9,-31.313 14.6,-7.187 32.97,-10.781 55.1,-10.781 22.13,0 40.61,4.106 55.44,12.321 14.83,8.21 26.81,19.39 35.94,33.539 9.12,14.141 15.56,30.631 19.34,49.451 3.74,18.82 5.64,38.84 5.64,60.06" /><path
         id="path58"
         style="fill:#20201c;fill-opacity:1;fill-rule:nonzero;stroke:none"
         d="m 6528.32,1187.41 c 0,-24.87 -3.88,-46.89 -11.64,-66.05 -7.76,-19.17 -19.05,-35.31 -33.88,-48.43 -14.83,-13.12 -33.03,-23.1 -54.57,-29.95 -21.59,-6.84 -46.96,-10.26 -76.16,-10.26 h -36.96 V 891.379 c 0,-2.281 -0.75,-4.336 -2.24,-6.16 -1.48,-1.824 -3.92,-3.309 -7.35,-4.449 -3.42,-1.141 -7.98,-2.055 -13.68,-2.739 -5.71,-0.683 -13.01,-1.027 -21.91,-1.027 -8.67,0 -15.92,0.344 -21.72,1.027 -5.84,0.684 -10.44,1.598 -13.87,2.739 -3.42,1.14 -5.82,2.625 -7.19,4.449 -1.36,1.824 -2.05,3.879 -2.05,6.16 v 398.351 c 0,10.72 2.78,18.77 8.38,24.13 5.58,5.36 12.95,8.04 22.08,8.04 h 104.38 c 10.49,0 20.46,-0.4 29.95,-1.2 9.45,-0.8 20.81,-2.51 34.04,-5.13 13.24,-2.62 26.63,-7.47 40.21,-14.55 13.57,-7.07 25.16,-16.02 34.74,-26.86 9.58,-10.84 16.89,-23.5 21.91,-37.99 5.01,-14.49 7.53,-30.74 7.53,-48.76 z m -94.12,-6.51 c 0,15.52 -2.74,28.3 -8.21,38.33 -5.48,10.04 -12.21,17.45 -20.19,22.25 -7.99,4.79 -16.38,7.81 -25.17,9.07 -8.78,1.25 -17.84,1.88 -27.19,1.88 h -38.33 v -150.24 h 40.38 c 14.37,0 26.4,1.94 36.09,5.82 9.7,3.88 17.64,9.29 23.8,16.25 6.16,6.96 10.83,15.29 14.03,24.99 3.2,9.69 4.79,20.25 4.79,31.65" /><path
         id="path60"
         style="fill:#20201c;fill-opacity:1;fill-rule:nonzero;stroke:none"
         d="m 6853.61,914.305 c 0,-6.614 -0.29,-12.149 -0.86,-16.594 -0.57,-4.449 -1.42,-8.043 -2.56,-10.781 -1.14,-2.739 -2.55,-4.735 -4.29,-5.989 -1.69,-1.253 -3.58,-1.882 -5.63,-1.882 h -222.45 c -7.53,0 -13.85,2.222 -19.01,6.671 -5.11,4.45 -7.68,11.696 -7.68,21.731 V 1293.5 c 0,10.04 2.57,17.28 7.68,21.73 5.16,4.45 11.48,6.67 19.01,6.67 h 221.08 c 2.05,0 3.88,-0.57 5.48,-1.71 1.59,-1.14 2.96,-3.14 4.1,-5.99 1.14,-2.85 1.98,-6.5 2.58,-10.95 0.55,-4.45 0.84,-10.1 0.84,-16.94 0,-6.39 -0.29,-11.81 -0.84,-16.26 -0.6,-4.45 -1.44,-8.04 -2.58,-10.78 -1.14,-2.73 -2.51,-4.73 -4.1,-5.98 -1.6,-1.26 -3.43,-1.89 -5.48,-1.89 h -158.11 v -108.14 h 133.81 c 2.05,0 3.92,-0.63 5.66,-1.88 1.69,-1.26 3.12,-3.2 4.26,-5.83 1.14,-2.62 1.99,-6.15 2.58,-10.6 0.55,-4.45 0.85,-9.87 0.85,-16.26 0,-6.62 -0.3,-12.09 -0.85,-16.42 -0.59,-4.34 -1.44,-7.82 -2.58,-10.44 -1.14,-2.63 -2.57,-4.51 -4.26,-5.65 -1.74,-1.14 -3.61,-1.71 -5.66,-1.71 H 6680.79 V 949.555 h 159.48 c 2.05,0 3.94,-0.625 5.63,-1.879 1.74,-1.258 3.15,-3.254 4.29,-5.992 1.14,-2.735 1.99,-6.329 2.56,-10.778 0.57,-4.449 0.86,-9.984 0.86,-16.601" /><path
         id="path62"
         style="fill:#20201c;fill-opacity:1;fill-rule:nonzero;stroke:none"
         d="m 7289.45,912.598 c 2.74,-8.215 4.45,-14.719 5.14,-19.508 0.68,-4.793 -0.23,-8.387 -2.74,-10.781 -2.51,-2.399 -6.96,-3.879 -13.35,-4.45 -6.39,-0.57 -15.17,-0.855 -26.35,-0.855 -11.64,0 -20.72,0.172 -27.2,0.516 -6.52,0.339 -11.47,1.023 -14.9,2.05 -3.42,1.028 -5.81,2.453 -7.18,4.278 -1.37,1.824 -2.51,4.222 -3.42,7.187 l -29.78,88.981 h -166.32 l -28.06,-86.582 c -0.91,-3.196 -2.13,-5.875 -3.59,-8.043 -1.5,-2.172 -3.9,-3.883 -7.2,-5.133 -3.31,-1.258 -7.99,-2.113 -14.01,-2.57 -6.07,-0.458 -13.99,-0.684 -23.8,-0.684 -10.49,0 -18.71,0.344 -24.64,1.027 -5.93,0.684 -10.04,2.34 -12.32,4.961 -2.28,2.625 -3.08,6.332 -2.39,11.125 0.68,4.789 2.39,11.18 5.12,19.164 l 136.56,392.879 c 1.36,3.88 2.96,7.01 4.79,9.41 1.82,2.39 4.72,4.22 8.71,5.47 4,1.26 9.54,2.06 16.61,2.4 7.07,0.34 16.43,0.51 28.06,0.51 13.47,0 24.19,-0.17 32.17,-0.51 7.99,-0.34 14.19,-1.14 18.67,-2.4 4.42,-1.25 7.62,-3.13 9.58,-5.64 1.91,-2.51 3.58,-5.93 4.95,-10.27 z m -203.28,324.772 h -0.35 l -62.62,-188.23 h 125.6 l -62.63,188.23" /><path
         id="path64"
         style="fill:#20201c;fill-opacity:1;fill-rule:nonzero;stroke:none"
         d="m 2519.62,621.883 c 0,-2.168 -0.12,-4.047 -0.34,-5.645 -0.23,-1.597 -0.63,-2.886 -1.2,-3.843 -0.57,-0.981 -1.23,-1.688 -1.97,-2.145 -0.74,-0.457 -1.51,-0.684 -2.31,-0.684 h -81.1 v -75.293 h 76.66 c 0.79,0 1.56,-0.203 2.3,-0.593 0.74,-0.41 1.4,-1.059 1.97,-1.973 0.57,-0.91 0.97,-2.133 1.2,-3.684 0.23,-1.527 0.34,-3.503 0.34,-5.898 0,-2.168 -0.11,-4.027 -0.34,-5.555 -0.23,-1.55 -0.63,-2.804 -1.2,-3.761 -0.57,-0.985 -1.23,-1.715 -1.97,-2.239 -0.74,-0.5 -1.51,-0.765 -2.3,-0.765 h -76.66 v -92.231 c 0,-0.797 -0.24,-1.574 -0.69,-2.301 -0.46,-0.757 -1.26,-1.324 -2.4,-1.714 -1.14,-0.411 -2.62,-0.739 -4.45,-1.024 -1.82,-0.285 -4.21,-0.437 -7.18,-0.437 -2.74,0 -5.08,0.152 -7.02,0.437 -1.94,0.285 -3.48,0.613 -4.62,1.024 -1.14,0.39 -1.94,0.957 -2.39,1.714 -0.46,0.727 -0.69,1.504 -0.69,2.301 V 622.57 c 0,4.446 1.17,7.551 3.51,9.328 2.33,1.758 4.82,2.649 7.44,2.649 h 99.59 c 0.8,0 1.57,-0.227 2.31,-0.684 0.74,-0.457 1.4,-1.199 1.97,-2.222 0.57,-1.032 0.97,-2.375 1.2,-4.032 0.22,-1.652 0.34,-3.558 0.34,-5.726" /><path
         id="path66"
         style="fill:#20201c;fill-opacity:1;fill-rule:nonzero;stroke:none"
         d="m 2699.7,496.117 c 0,-12.551 -1.65,-24.105 -4.96,-34.644 -3.31,-10.567 -8.25,-19.657 -14.8,-27.301 -6.57,-7.641 -14.78,-13.609 -24.64,-17.875 -9.88,-4.289 -21.31,-6.422 -34.31,-6.422 -12.67,0 -23.71,1.883 -33.11,5.648 -9.42,3.762 -17.25,9.239 -23.53,16.426 -6.28,7.188 -10.95,15.914 -14.03,26.18 -3.08,10.266 -4.62,21.902 -4.62,34.906 0,12.551 1.62,24.094 4.88,34.645 3.24,10.55 8.14,19.656 14.72,27.3 6.54,7.641 14.74,13.575 24.55,17.797 9.81,4.219 21.27,6.328 34.39,6.328 12.66,0 23.69,-1.878 33.12,-5.644 9.4,-3.766 17.25,-9.242 23.52,-16.426 6.27,-7.187 10.97,-15.914 14.12,-26.183 3.13,-10.266 4.7,-21.844 4.7,-34.735 z m -29.26,-1.883 c 0,8.329 -0.78,16.2 -2.33,23.614 -1.56,7.414 -4.12,13.918 -7.68,19.507 -3.58,5.59 -8.41,10.016 -14.5,13.254 -6.11,3.266 -13.71,4.883 -22.8,4.883 -8.4,0 -15.63,-1.484 -21.67,-4.449 -6.05,-2.965 -11.02,-7.164 -14.93,-12.57 -3.92,-5.43 -6.83,-11.84 -8.72,-19.254 -1.9,-7.418 -2.85,-15.516 -2.85,-24.301 0,-8.441 0.77,-16.367 2.33,-23.781 1.56,-7.418 4.15,-13.899 7.76,-19.43 3.63,-5.531 8.49,-9.926 14.59,-13.164 6.11,-3.262 13.7,-4.883 22.8,-4.883 8.29,0 15.48,1.481 21.58,4.449 6.11,2.965 11.11,7.129 15.02,12.493 3.92,5.359 6.79,11.746 8.64,19.164 1.84,7.414 2.76,15.57 2.76,24.468" /><path
         id="path68"
         style="fill:#20201c;fill-opacity:1;fill-rule:nonzero;stroke:none"
         d="m 2873.89,417.406 c 0,-0.914 -0.23,-1.691 -0.68,-2.32 -0.46,-0.625 -1.2,-1.16 -2.23,-1.617 -1.02,-0.457 -2.45,-0.801 -4.27,-1.028 -1.83,-0.226 -4.11,-0.343 -6.85,-0.343 -2.85,0 -5.19,0.117 -7.01,0.343 -1.83,0.227 -3.26,0.571 -4.28,1.028 -1.03,0.457 -1.77,0.992 -2.22,1.617 -0.46,0.629 -0.69,1.406 -0.69,2.32 v 90.176 c 0,8.781 -0.68,15.856 -2.05,21.215 -1.37,5.363 -3.37,9.984 -5.99,13.863 -2.63,3.875 -6.03,6.844 -10.18,8.899 -4.17,2.05 -8.99,3.078 -14.46,3.078 -7.07,0 -14.15,-2.508 -21.22,-7.528 -7.07,-5.019 -14.49,-12.379 -22.24,-22.074 V 417.406 c 0,-0.914 -0.23,-1.691 -0.69,-2.32 -0.45,-0.625 -1.2,-1.16 -2.22,-1.617 -1.03,-0.457 -2.46,-0.801 -4.28,-1.028 -1.83,-0.226 -4.17,-0.343 -7.02,-0.343 -2.74,0 -5.02,0.117 -6.85,0.343 -1.82,0.227 -3.28,0.571 -4.36,1.028 -1.09,0.457 -1.83,0.992 -2.21,1.617 -0.41,0.629 -0.61,1.406 -0.61,2.32 V 571.41 c 0,0.906 0.17,1.672 0.52,2.313 0.34,0.617 1.02,1.187 2.05,1.711 1.03,0.5 2.34,0.843 3.93,1.027 1.6,0.16 3.71,0.25 6.33,0.25 2.52,0 4.59,-0.09 6.26,-0.25 1.64,-0.184 2.93,-0.527 3.84,-1.027 0.91,-0.524 1.56,-1.094 1.97,-1.711 0.39,-0.641 0.6,-1.407 0.6,-2.313 v -20.367 c 8.67,9.695 17.3,16.793 25.92,21.309 8.61,4.496 17.31,6.753 26.1,6.753 10.26,0 18.91,-1.746 25.91,-5.222 7.03,-3.481 12.7,-8.121 17.04,-13.942 4.33,-5.816 7.45,-12.64 9.32,-20.445 1.89,-7.82 2.82,-17.199 2.82,-28.148 v -93.942" /><path
         id="path70"
         style="fill:#20201c;fill-opacity:1;fill-rule:nonzero;stroke:none"
         d="m 3057.33,417.406 c 0,-0.914 -0.21,-1.715 -0.6,-2.398 -0.41,-0.684 -1.09,-1.231 -2.05,-1.629 -0.98,-0.391 -2.25,-0.711 -3.86,-0.938 -1.59,-0.226 -3.53,-0.343 -5.81,-0.343 -2.4,0 -4.39,0.117 -5.99,0.343 -1.6,0.227 -2.91,0.547 -3.94,0.938 -1.03,0.398 -1.76,0.945 -2.22,1.629 -0.46,0.683 -0.68,1.484 -0.68,2.398 v 20.36 c -8.11,-8.782 -16.51,-15.629 -25.25,-20.536 -8.72,-4.902 -18.27,-7.355 -28.66,-7.355 -11.29,0 -20.93,2.199 -28.91,6.582 -7.99,4.391 -14.46,10.324 -19.43,17.797 -4.95,7.469 -8.58,16.266 -10.86,26.351 -2.28,10.106 -3.43,20.739 -3.43,31.918 0,13.231 1.43,25.176 4.29,35.844 2.85,10.664 7.07,19.77 12.66,27.297 5.59,7.527 12.51,13.313 20.79,17.375 8.26,4.035 17.82,6.066 28.66,6.066 9.01,0 17.25,-1.96 24.73,-5.91 7.46,-3.922 14.85,-9.718 22.15,-17.359 v 89.492 c 0,0.797 0.2,1.563 0.6,2.313 0.39,0.73 1.17,1.3 2.31,1.714 1.14,0.387 2.59,0.727 4.37,1.024 1.76,0.277 4.02,0.426 6.75,0.426 2.85,0 5.19,-0.149 7.02,-0.426 1.83,-0.297 3.25,-0.637 4.28,-1.024 1.02,-0.414 1.8,-0.984 2.3,-1.714 0.53,-0.75 0.78,-1.516 0.78,-2.313 z m -28.41,108.313 c -7.64,9.469 -15.03,16.679 -22.15,21.652 -7.14,4.949 -14.58,7.438 -22.34,7.438 -7.18,0 -13.29,-1.711 -18.3,-5.133 -5.02,-3.422 -9.11,-7.93 -12.25,-13.52 -3.13,-5.59 -5.42,-11.922 -6.84,-18.992 -1.43,-7.07 -2.13,-14.262 -2.13,-21.562 0,-7.754 0.6,-15.344 1.79,-22.758 1.21,-7.414 3.28,-14.008 6.25,-19.77 2.96,-5.761 6.9,-10.379 11.8,-13.847 4.91,-3.493 11.07,-5.223 18.49,-5.223 3.76,0 7.38,0.512 10.87,1.539 3.46,1.027 7.04,2.738 10.69,5.133 3.65,2.394 7.47,5.5 11.46,9.32 3.99,3.82 8.22,8.531 12.66,14.121 v 61.602" /><path
         id="path72"
         style="fill:#20201c;fill-opacity:1;fill-rule:nonzero;stroke:none"
         d="m 3252.74,496.117 c 0,-12.551 -1.65,-24.105 -4.96,-34.644 -3.31,-10.567 -8.25,-19.657 -14.8,-27.301 -6.57,-7.641 -14.78,-13.609 -24.64,-17.875 -9.88,-4.289 -21.3,-6.422 -34.31,-6.422 -12.66,0 -23.71,1.883 -33.11,5.648 -9.42,3.762 -17.26,9.239 -23.53,16.426 -6.27,7.188 -10.95,15.914 -14.03,26.18 -3.08,10.266 -4.62,21.902 -4.62,34.906 0,12.551 1.62,24.094 4.88,34.645 3.24,10.55 8.15,19.656 14.72,27.3 6.54,7.641 14.73,13.575 24.54,17.797 9.82,4.219 21.28,6.328 34.4,6.328 12.66,0 23.69,-1.878 33.11,-5.644 9.4,-3.766 17.25,-9.242 23.53,-16.426 6.27,-7.187 10.97,-15.914 14.12,-26.183 3.12,-10.266 4.7,-21.844 4.7,-34.735 z m -29.26,-1.883 c 0,8.329 -0.78,16.2 -2.33,23.614 -1.56,7.414 -4.11,13.918 -7.69,19.507 -3.57,5.59 -8.4,10.016 -14.5,13.254 -6.1,3.266 -13.7,4.883 -22.78,4.883 -8.41,0 -15.64,-1.484 -21.68,-4.449 -6.05,-2.965 -11.02,-7.164 -14.93,-12.57 -3.92,-5.43 -6.83,-11.84 -8.72,-19.254 -1.9,-7.418 -2.85,-15.516 -2.85,-24.301 0,-8.441 0.77,-16.367 2.32,-23.781 1.57,-7.418 4.16,-13.899 7.77,-19.43 3.63,-5.531 8.49,-9.926 14.59,-13.164 6.11,-3.262 13.71,-4.883 22.8,-4.883 8.29,0 15.48,1.481 21.58,4.449 6.1,2.965 11.11,7.129 15.03,12.493 3.91,5.359 6.78,11.746 8.63,19.164 1.83,7.414 2.76,15.57 2.76,24.468" /><path
         id="path74"
         style="fill:#20201c;fill-opacity:1;fill-rule:nonzero;stroke:none"
         d="m 3500,425.277 c 0,-2.054 -0.12,-3.847 -0.34,-5.398 -0.23,-1.527 -0.63,-2.816 -1.2,-3.844 -0.57,-1.027 -1.23,-1.769 -1.98,-2.222 -0.73,-0.458 -1.56,-0.684 -2.47,-0.684 h -106.26 c -2.62,0 -5.11,0.879 -7.44,2.644 -2.35,1.766 -3.51,4.879 -3.51,9.332 V 622.57 c 0,4.446 1.16,7.551 3.51,9.328 2.33,1.758 4.82,2.649 7.44,2.649 h 105.06 c 0.91,0 1.74,-0.227 2.49,-0.684 0.73,-0.457 1.33,-1.199 1.79,-2.222 0.46,-1.032 0.82,-2.317 1.11,-3.848 0.28,-1.551 0.43,-3.453 0.43,-5.738 0,-2.051 -0.15,-3.844 -0.43,-5.395 -0.29,-1.531 -0.65,-2.797 -1.11,-3.765 -0.46,-0.969 -1.06,-1.676 -1.79,-2.133 -0.75,-0.453 -1.58,-0.684 -2.49,-0.684 h -86.58 v -69.473 h 74.26 c 0.92,0 1.74,-0.261 2.49,-0.761 0.73,-0.528 1.37,-1.235 1.87,-2.145 0.53,-0.914 0.89,-2.168 1.12,-3.765 0.23,-1.598 0.34,-3.481 0.34,-5.649 0,-2.051 -0.11,-3.82 -0.34,-5.305 -0.23,-1.484 -0.59,-2.679 -1.12,-3.593 -0.5,-0.91 -1.14,-1.574 -1.87,-1.973 -0.75,-0.398 -1.57,-0.594 -2.49,-0.594 h -74.26 v -79.226 h 87.78 c 0.91,0 1.74,-0.227 2.47,-0.684 0.75,-0.457 1.41,-1.176 1.98,-2.133 0.57,-0.98 0.97,-2.234 1.2,-3.761 0.22,-1.555 0.34,-3.461 0.34,-5.739" /><path
         id="path76"
         style="fill:#20201c;fill-opacity:1;fill-rule:nonzero;stroke:none"
         d="m 3676.59,417.406 c 0,-0.914 -0.21,-1.691 -0.59,-2.32 -0.41,-0.625 -1.12,-1.16 -2.15,-1.617 -1.03,-0.457 -2.37,-0.801 -4.01,-1.028 -1.67,-0.226 -3.69,-0.343 -6.09,-0.343 -2.62,0 -4.76,0.117 -6.41,0.343 -1.66,0.227 -2.97,0.571 -3.93,1.028 -0.98,0.457 -1.63,0.992 -1.98,1.617 -0.34,0.629 -0.51,1.406 -0.51,2.32 v 20.36 c -8.78,-9.696 -17.45,-16.766 -26.01,-21.219 -8.55,-4.449 -17.22,-6.672 -26,-6.672 -10.27,0 -18.92,1.711 -25.93,5.133 -7.02,3.422 -12.69,8.066 -17.03,13.953 -4.33,5.863 -7.45,12.707 -9.32,20.531 -1.89,7.805 -2.83,17.305 -2.83,28.485 v 93.433 c 0,0.906 0.2,1.672 0.6,2.313 0.4,0.617 1.17,1.187 2.31,1.711 1.15,0.5 2.63,0.843 4.45,1.027 1.83,0.16 4.11,0.25 6.85,0.25 2.74,0 5.02,-0.09 6.84,-0.25 1.83,-0.184 3.28,-0.527 4.37,-1.027 1.07,-0.524 1.85,-1.094 2.3,-1.711 0.46,-0.641 0.69,-1.407 0.69,-2.313 v -89.668 c 0,-9.012 0.65,-16.234 1.96,-21.64 1.31,-5.43 3.31,-10.051 6,-13.872 2.67,-3.82 6.07,-6.789 10.18,-8.898 4.1,-2.109 8.89,-3.16 14.37,-3.16 7.07,0 14.12,2.512 21.13,7.531 7.03,5.02 14.46,12.379 22.33,22.07 V 571.41 c 0,0.906 0.2,1.672 0.6,2.313 0.4,0.617 1.17,1.187 2.31,1.711 1.14,0.5 2.59,0.843 4.37,1.027 1.76,0.16 4.08,0.25 6.93,0.25 2.74,0 5.02,-0.09 6.84,-0.25 1.83,-0.184 3.25,-0.527 4.28,-1.027 1.03,-0.524 1.8,-1.094 2.3,-1.711 0.53,-0.641 0.78,-1.407 0.78,-2.313 V 417.406" /><path
         id="path78"
         style="fill:#20201c;fill-opacity:1;fill-rule:nonzero;stroke:none"
         d="m 3818.79,561.309 c 0,-2.508 -0.06,-4.618 -0.18,-6.329 -0.11,-1.71 -0.34,-3.058 -0.68,-4.027 -0.34,-0.969 -0.78,-1.711 -1.28,-2.215 -0.52,-0.523 -1.23,-0.777 -2.14,-0.777 -0.92,0 -2.03,0.254 -3.33,0.777 -1.33,0.504 -2.81,1.028 -4.45,1.532 -1.67,0.523 -3.52,1 -5.57,1.46 -2.05,0.454 -4.28,0.684 -6.68,0.684 -2.85,0 -5.64,-0.57 -8.38,-1.715 -2.74,-1.136 -5.62,-3.019 -8.64,-5.644 -3.03,-2.625 -6.19,-6.102 -9.5,-10.438 -3.3,-4.336 -6.95,-9.637 -10.95,-15.914 V 417.406 c 0,-0.914 -0.22,-1.691 -0.68,-2.32 -0.46,-0.625 -1.2,-1.16 -2.22,-1.617 -1.03,-0.457 -2.46,-0.801 -4.28,-1.028 -1.83,-0.226 -4.17,-0.343 -7.02,-0.343 -2.74,0 -5.02,0.117 -6.85,0.343 -1.82,0.227 -3.28,0.571 -4.36,1.028 -1.09,0.457 -1.83,0.992 -2.22,1.617 -0.41,0.629 -0.6,1.406 -0.6,2.32 V 571.41 c 0,0.906 0.17,1.672 0.51,2.313 0.34,0.617 1.03,1.187 2.06,1.711 1.03,0.5 2.33,0.843 3.93,1.027 1.6,0.16 3.71,0.25 6.33,0.25 2.51,0 4.59,-0.09 6.25,-0.25 1.65,-0.184 2.94,-0.527 3.85,-1.027 0.91,-0.524 1.56,-1.094 1.97,-1.711 0.39,-0.641 0.6,-1.407 0.6,-2.313 v -22.418 c 4.22,6.16 8.17,11.176 11.88,15.055 3.71,3.879 7.22,6.937 10.53,9.148 3.31,2.239 6.58,3.766 9.85,4.637 3.23,0.84 6.52,1.273 9.83,1.273 1.48,0 3.17,-0.089 5.04,-0.25 1.89,-0.183 3.86,-0.492 5.91,-0.945 2.06,-0.457 3.9,-0.972 5.57,-1.539 1.64,-0.57 2.81,-1.144 3.5,-1.715 0.68,-0.57 1.14,-1.117 1.37,-1.617 0.22,-0.527 0.42,-1.176 0.6,-1.976 0.16,-0.797 0.28,-1.973 0.34,-3.5 0.05,-1.551 0.09,-3.629 0.09,-6.254" /><path
         id="path80"
         style="fill:#20201c;fill-opacity:1;fill-rule:nonzero;stroke:none"
         d="m 3989.61,496.117 c 0,-12.551 -1.65,-24.105 -4.96,-34.644 -3.31,-10.567 -8.25,-19.657 -14.79,-27.301 -6.57,-7.641 -14.79,-13.609 -24.65,-17.875 -9.87,-4.289 -21.3,-6.422 -34.31,-6.422 -12.66,0 -23.7,1.883 -33.1,5.648 -9.42,3.762 -17.26,9.239 -23.54,16.426 -6.27,7.188 -10.95,15.914 -14.03,26.18 -3.08,10.266 -4.62,21.902 -4.62,34.906 0,12.551 1.62,24.094 4.88,34.645 3.24,10.55 8.15,19.656 14.72,27.3 6.55,7.641 14.74,13.575 24.55,17.797 9.81,4.219 21.28,6.328 34.39,6.328 12.67,0 23.69,-1.878 33.12,-5.644 9.4,-3.766 17.25,-9.242 23.52,-16.426 6.27,-7.187 10.98,-15.914 14.12,-26.183 3.13,-10.266 4.7,-21.844 4.7,-34.735 z m -29.26,-1.883 c 0,8.329 -0.78,16.2 -2.32,23.614 -1.57,7.414 -4.12,13.918 -7.69,19.507 -3.57,5.59 -8.41,10.016 -14.5,13.254 -6.11,3.266 -13.71,4.883 -22.79,4.883 -8.41,0 -15.64,-1.484 -21.68,-4.449 -6.05,-2.965 -11.02,-7.164 -14.93,-12.57 -3.92,-5.43 -6.82,-11.84 -8.72,-19.254 -1.9,-7.418 -2.85,-15.516 -2.85,-24.301 0,-8.441 0.78,-16.367 2.33,-23.781 1.56,-7.418 4.15,-13.899 7.76,-19.43 3.64,-5.531 8.5,-9.926 14.59,-13.164 6.11,-3.262 13.71,-4.883 22.8,-4.883 8.29,0 15.48,1.481 21.58,4.449 6.11,2.965 11.11,7.129 15.03,12.493 3.91,5.359 6.78,11.746 8.63,19.164 1.84,7.414 2.76,15.57 2.76,24.468" /><path
         id="path82"
         style="fill:#20201c;fill-opacity:1;fill-rule:nonzero;stroke:none"
         d="m 4172.88,496.801 c 0,-13.461 -1.45,-25.551 -4.37,-36.278 -2.9,-10.722 -7.19,-19.824 -12.83,-27.296 -5.66,-7.473 -12.63,-13.235 -20.96,-17.27 -8.33,-4.051 -17.86,-6.082 -28.58,-6.082 -4.56,0 -8.78,0.457 -12.66,1.367 -3.88,0.914 -7.68,2.34 -11.37,4.281 -3.73,1.938 -7.4,4.391 -11.04,7.356 -3.66,2.965 -7.53,6.445 -11.64,10.437 v -77 c 0,-0.91 -0.23,-1.711 -0.69,-2.394 -0.45,-0.684 -1.2,-1.254 -2.22,-1.711 -1.03,-0.457 -2.45,-0.801 -4.28,-1.027 -1.83,-0.231 -4.16,-0.344 -7.01,-0.344 -2.75,0 -5.02,0.113 -6.85,0.344 -1.83,0.226 -3.28,0.57 -4.37,1.027 -1.08,0.457 -1.82,1.027 -2.21,1.711 -0.41,0.683 -0.61,1.484 -0.61,2.394 V 571.41 c 0,1.024 0.17,1.844 0.52,2.473 0.34,0.629 1.02,1.176 2.05,1.629 1.03,0.457 2.34,0.765 3.94,0.949 1.59,0.16 3.53,0.25 5.82,0.25 2.39,0 4.36,-0.09 5.89,-0.25 1.55,-0.184 2.83,-0.492 3.86,-0.949 1.03,-0.453 1.73,-1 2.14,-1.629 0.39,-0.629 0.59,-1.449 0.59,-2.473 v -20.711 c 4.68,4.793 9.19,8.957 13.52,12.492 4.34,3.539 8.69,6.469 13.09,8.821 4.39,2.328 8.9,4.105 13.53,5.293 4.61,1.211 9.49,1.8 14.62,1.8 11.18,0 20.7,-2.167 28.58,-6.503 7.87,-4.332 14.29,-10.266 19.24,-17.793 4.97,-7.532 8.59,-16.293 10.87,-26.262 2.28,-9.992 3.43,-20.567 3.43,-31.746 z m -29.27,-3.25 c 0,7.871 -0.6,15.492 -1.79,22.836 -1.21,7.371 -3.28,13.894 -6.21,19.597 -2.92,5.707 -6.86,10.27 -11.8,13.692 -4.93,3.422 -11.08,5.133 -18.41,5.133 -3.67,0 -7.3,-0.547 -10.85,-1.621 -3.56,-1.094 -7.17,-2.805 -10.85,-5.133 -3.67,-2.348 -7.52,-5.43 -11.53,-9.242 -4.02,-3.829 -8.27,-8.532 -12.74,-14.118 v -61.261 c 7.8,-9.469 15.2,-16.711 22.21,-21.731 7,-5.019 14.35,-7.531 22.04,-7.531 7.1,0 13.22,1.711 18.33,5.133 5.1,3.422 9.24,7.988 12.4,13.691 3.15,5.703 5.48,12.09 6.97,19.164 1.5,7.07 2.23,14.203 2.23,21.391" /><path
         id="path84"
         style="fill:#20201c;fill-opacity:1;fill-rule:nonzero;stroke:none"
         d="m 4346.73,501.078 c 0,-4.449 -1.12,-7.621 -3.36,-9.488 -2.23,-1.895 -4.78,-2.832 -7.64,-2.832 h -101.42 c 0,-8.555 0.85,-16.254 2.57,-23.102 1.73,-6.843 4.59,-12.715 8.61,-17.621 4,-4.906 9.22,-8.672 15.64,-11.293 6.42,-2.625 14.26,-3.941 23.55,-3.941 7.34,0 13.87,0.605 19.61,1.793 5.73,1.211 10.69,2.543 14.87,4.027 4.18,1.481 7.63,2.82 10.32,4.027 2.69,1.188 4.72,1.793 6.1,1.793 0.8,0 1.52,-0.207 2.15,-0.605 0.64,-0.398 1.12,-0.996 1.47,-1.789 0.34,-0.801 0.59,-1.918 0.76,-3.344 0.17,-1.426 0.27,-3.16 0.27,-5.215 0,-1.48 -0.06,-2.769 -0.18,-3.843 -0.11,-1.094 -0.25,-2.055 -0.43,-2.922 -0.16,-0.84 -0.46,-1.618 -0.85,-2.301 -0.4,-0.688 -0.92,-1.348 -1.54,-1.965 -0.63,-0.641 -2.48,-1.664 -5.56,-3.078 -3.08,-1.438 -7.07,-2.832 -11.98,-4.199 -4.9,-1.367 -10.58,-2.59 -17.03,-3.672 -6.45,-1.086 -13.31,-1.633 -20.61,-1.633 -12.67,0 -23.76,1.77 -33.28,5.305 -9.54,3.535 -17.54,8.785 -24.04,15.742 -6.51,6.957 -11.41,15.683 -14.72,26.18 -3.31,10.496 -4.97,22.703 -4.97,36.621 0,13.23 1.72,25.117 5.14,35.668 3.42,10.554 8.35,19.507 14.79,26.879 6.45,7.347 14.24,13.003 23.37,16.925 9.12,3.95 19.34,5.91 30.63,5.91 12.09,0 22.38,-1.937 30.88,-5.816 8.49,-3.879 15.49,-9.105 20.96,-15.652 5.48,-6.571 9.49,-14.27 12.07,-23.114 2.56,-8.839 3.85,-18.273 3.85,-28.312 z m -28.41,8.387 c 0.34,14.828 -2.95,26.465 -9.9,34.906 -6.94,8.442 -17.25,12.664 -30.9,12.664 -7,0 -13.14,-1.312 -18.43,-3.937 -5.28,-2.625 -9.69,-6.106 -13.25,-10.438 -3.56,-4.336 -6.31,-9.39 -8.26,-15.14 -1.95,-5.77 -3.04,-11.786 -3.27,-18.055 h 84.01" /><path
         id="path86"
         style="fill:#20201c;fill-opacity:1;fill-rule:nonzero;stroke:none"
         d="m 4532.9,496.117 c 0,-12.551 -1.65,-24.105 -4.96,-34.644 -3.31,-10.567 -8.25,-19.657 -14.8,-27.301 -6.57,-7.641 -14.78,-13.609 -24.64,-17.875 -9.87,-4.289 -21.31,-6.422 -34.31,-6.422 -12.67,0 -23.71,1.883 -33.11,5.648 -9.42,3.762 -17.26,9.239 -23.53,16.426 -6.28,7.188 -10.95,15.914 -14.03,26.18 -3.09,10.266 -4.62,21.902 -4.62,34.906 0,12.551 1.62,24.094 4.88,34.645 3.24,10.55 8.15,19.656 14.72,27.3 6.54,7.641 14.73,13.575 24.55,17.797 9.81,4.219 21.27,6.328 34.39,6.328 12.66,0 23.69,-1.878 33.11,-5.644 9.41,-3.766 17.25,-9.242 23.53,-16.426 6.27,-7.187 10.97,-15.914 14.12,-26.183 3.12,-10.266 4.7,-21.844 4.7,-34.735 z m -29.26,-1.883 c 0,8.329 -0.78,16.2 -2.33,23.614 -1.56,7.414 -4.12,13.918 -7.68,19.507 -3.58,5.59 -8.42,10.016 -14.5,13.254 -6.11,3.266 -13.71,4.883 -22.8,4.883 -8.41,0 -15.63,-1.484 -21.67,-4.449 -6.05,-2.965 -11.02,-7.164 -14.93,-12.57 -3.92,-5.43 -6.83,-11.84 -8.72,-19.254 -1.9,-7.418 -2.85,-15.516 -2.85,-24.301 0,-8.441 0.77,-16.367 2.32,-23.781 1.57,-7.418 4.16,-13.899 7.77,-19.43 3.63,-5.531 8.49,-9.926 14.59,-13.164 6.11,-3.262 13.7,-4.883 22.8,-4.883 8.29,0 15.48,1.481 21.58,4.449 6.1,2.965 11.11,7.129 15.02,12.493 3.92,5.359 6.79,11.746 8.64,19.164 1.83,7.414 2.76,15.57 2.76,24.468" /><path
         id="path88"
         style="fill:#20201c;fill-opacity:1;fill-rule:nonzero;stroke:none"
         d="m 4785.63,417.406 c 0,-0.914 -0.19,-1.715 -0.6,-2.398 -0.41,-0.684 -1.1,-1.231 -2.05,-1.629 -0.96,-0.391 -2.24,-0.711 -3.84,-0.938 -1.59,-0.226 -3.55,-0.343 -5.84,-0.343 -2.37,0 -4.37,0.117 -5.98,0.343 -1.59,0.227 -2.91,0.547 -3.92,0.938 -1.05,0.398 -1.78,0.945 -2.24,1.629 -0.45,0.683 -0.68,1.484 -0.68,2.398 v 20.36 c -8.1,-8.782 -16.5,-15.629 -25.24,-20.536 -8.72,-4.902 -18.28,-7.355 -28.66,-7.355 -11.29,0 -20.93,2.199 -28.92,6.582 -7.98,4.391 -14.45,10.324 -19.43,17.797 -4.95,7.469 -8.57,16.266 -10.85,26.351 -2.29,10.106 -3.43,20.739 -3.43,31.918 0,13.231 1.43,25.176 4.28,35.844 2.85,10.664 7.07,19.77 12.66,27.297 5.59,7.527 12.52,13.313 20.8,17.375 8.26,4.035 17.82,6.066 28.65,6.066 9.02,0 17.25,-1.96 24.73,-5.91 7.47,-3.922 14.86,-9.718 22.17,-17.359 v 89.492 c 0,0.797 0.19,1.563 0.59,2.313 0.39,0.73 1.17,1.3 2.31,1.714 1.14,0.387 2.57,0.727 4.36,1.024 1.78,0.277 4.01,0.426 6.75,0.426 2.88,0 5.2,-0.149 7.02,-0.426 1.83,-0.297 3.25,-0.637 4.29,-1.024 1.01,-0.414 1.78,-0.984 2.29,-1.714 0.54,-0.75 0.78,-1.516 0.78,-2.313 z m -28.39,108.313 c -7.65,9.469 -15.05,16.679 -22.17,21.652 -7.14,4.949 -14.57,7.438 -22.33,7.438 -7.19,0 -13.29,-1.711 -18.31,-5.133 -5.02,-3.422 -9.1,-7.93 -12.24,-13.52 -3.14,-5.59 -5.42,-11.922 -6.85,-18.992 -1.42,-7.07 -2.13,-14.262 -2.13,-21.562 0,-7.754 0.61,-15.344 1.79,-22.758 1.21,-7.414 3.29,-14.008 6.25,-19.77 2.97,-5.761 6.91,-10.379 11.81,-13.847 4.9,-3.493 11.07,-5.223 18.48,-5.223 3.76,0 7.38,0.512 10.87,1.539 3.47,1.027 7.04,2.738 10.7,5.133 3.64,2.394 7.46,5.5 11.46,9.32 3.99,3.82 8.21,8.531 12.67,14.121 v 61.602" /><path
         id="path90"
         style="fill:#20201c;fill-opacity:1;fill-rule:nonzero;stroke:none"
         d="m 4969.26,501.078 c 0,-4.449 -1.12,-7.621 -3.35,-9.488 -2.24,-1.895 -4.79,-2.832 -7.67,-2.832 h -101.41 c 0,-8.555 0.87,-16.254 2.58,-23.102 1.71,-6.843 4.59,-12.715 8.6,-17.621 4.01,-4.906 9.22,-8.672 15.65,-11.293 6.41,-2.625 14.26,-3.941 23.55,-3.941 7.34,0 13.87,0.605 19.59,1.793 5.75,1.211 10.7,2.543 14.88,4.027 4.2,1.481 7.62,2.82 10.31,4.027 2.72,1.188 4.75,1.793 6.12,1.793 0.8,0 1.52,-0.207 2.14,-0.605 0.64,-0.398 1.12,-0.996 1.46,-1.789 0.34,-0.801 0.62,-1.918 0.77,-3.344 0.19,-1.426 0.26,-3.16 0.26,-5.215 0,-1.48 -0.05,-2.769 -0.16,-3.843 -0.12,-1.094 -0.25,-2.055 -0.44,-2.922 -0.16,-0.84 -0.45,-1.618 -0.84,-2.301 -0.41,-0.688 -0.91,-1.348 -1.55,-1.965 -0.62,-0.641 -2.48,-1.664 -5.55,-3.078 -3.1,-1.438 -7.09,-2.832 -12,-4.199 -4.9,-1.367 -10.56,-2.59 -17.02,-3.672 -6.43,-1.086 -13.32,-1.633 -20.62,-1.633 -12.64,0 -23.75,1.77 -33.27,5.305 -9.53,3.535 -17.54,8.785 -24.04,15.742 -6.5,6.957 -11.41,15.683 -14.72,26.18 -3.31,10.496 -4.95,22.703 -4.95,36.621 0,13.23 1.69,25.117 5.11,35.668 3.42,10.554 8.37,19.507 14.81,26.879 6.46,7.347 14.23,13.003 23.36,16.925 9.13,3.95 19.33,5.91 30.64,5.91 12.07,0 22.38,-1.937 30.87,-5.816 8.51,-3.879 15.49,-9.105 20.97,-15.652 5.47,-6.571 9.49,-14.27 12.07,-23.114 2.55,-8.839 3.85,-18.273 3.85,-28.312 z m -28.42,8.387 c 0.36,14.828 -2.95,26.465 -9.88,34.906 -6.96,8.442 -17.25,12.664 -30.92,12.664 -7,0 -13.14,-1.312 -18.41,-3.937 -5.29,-2.625 -9.7,-6.106 -13.25,-10.438 -3.57,-4.336 -6.33,-9.39 -8.29,-15.14 -1.94,-5.77 -3.03,-11.786 -3.26,-18.055 h 84.01" /><path
         id="path92"
         style="fill:#20201c;fill-opacity:1;fill-rule:nonzero;stroke:none"
         d="m 5264.92,527.09 c 0,-19.164 -2.44,-35.914 -7.34,-50.215 -4.91,-14.332 -12.07,-26.195 -21.47,-35.594 -9.43,-9.426 -20.97,-16.465 -34.66,-21.14 -13.68,-4.676 -30,-7.012 -48.94,-7.012 h -46.88 c -2.62,0 -5.11,0.879 -7.44,2.644 -2.35,1.766 -3.51,4.879 -3.51,9.332 V 622.57 c 0,4.446 1.16,7.551 3.51,9.328 2.33,1.758 4.82,2.649 7.44,2.649 h 50.15 c 19.16,0 35.34,-2.484 48.59,-7.438 13.21,-4.976 24.32,-12.101 33.27,-21.402 8.96,-9.293 15.74,-20.555 20.37,-33.789 4.61,-13.23 6.91,-28.176 6.91,-44.828 z m -30.96,-1.199 c 0,11.976 -1.48,23.121 -4.44,33.457 -2.97,10.312 -7.63,19.246 -13.95,26.773 -6.34,7.531 -14.35,13.406 -24.04,17.625 -9.7,4.223 -22.2,6.332 -37.49,6.332 h -29.93 V 437.766 h 30.3 c 14.12,0 26.05,1.769 35.75,5.304 9.7,3.535 17.79,8.957 24.3,16.258 6.5,7.301 11.38,16.449 14.62,27.469 3.26,10.996 4.88,24.035 4.88,39.094" /><path
         id="path94"
         style="fill:#20201c;fill-opacity:1;fill-rule:nonzero;stroke:none"
         d="m 5438.46,501.078 c 0,-4.449 -1.12,-7.621 -3.36,-9.488 -2.23,-1.895 -4.79,-2.832 -7.66,-2.832 h -101.42 c 0,-8.555 0.87,-16.254 2.58,-23.102 1.71,-6.843 4.59,-12.715 8.6,-17.621 4.02,-4.906 9.22,-8.672 15.66,-11.293 6.41,-2.625 14.25,-3.941 23.54,-3.941 7.35,0 13.87,0.605 19.6,1.793 5.75,1.211 10.7,2.543 14.87,4.027 4.2,1.481 7.63,2.82 10.31,4.027 2.72,1.188 4.75,1.793 6.12,1.793 0.8,0 1.53,-0.207 2.15,-0.605 0.63,-0.398 1.12,-0.996 1.45,-1.789 0.35,-0.801 0.62,-1.918 0.78,-3.344 0.18,-1.426 0.25,-3.16 0.25,-5.215 0,-1.48 -0.04,-2.769 -0.16,-3.843 -0.11,-1.094 -0.25,-2.055 -0.43,-2.922 -0.16,-0.84 -0.46,-1.618 -0.85,-2.301 -0.41,-0.688 -0.91,-1.348 -1.55,-1.965 -0.61,-0.641 -2.48,-1.664 -5.54,-3.078 -3.1,-1.438 -7.1,-2.832 -12,-4.199 -4.91,-1.367 -10.57,-2.59 -17.02,-3.672 -6.43,-1.086 -13.33,-1.633 -20.63,-1.633 -12.64,0 -23.75,1.77 -33.26,5.305 -9.54,3.535 -17.55,8.785 -24.05,15.742 -6.5,6.957 -11.41,15.683 -14.72,26.18 -3.3,10.496 -4.95,22.703 -4.95,36.621 0,13.23 1.69,25.117 5.12,35.668 3.41,10.554 8.37,19.507 14.8,26.879 6.46,7.347 14.24,13.003 23.36,16.925 9.13,3.95 19.33,5.91 30.65,5.91 12.07,0 22.38,-1.937 30.87,-5.816 8.5,-3.879 15.48,-9.105 20.96,-15.652 5.48,-6.571 9.49,-14.27 12.07,-23.114 2.56,-8.839 3.86,-18.273 3.86,-28.312 z m -28.43,8.387 c 0.36,14.828 -2.94,26.465 -9.88,34.906 -6.96,8.442 -17.25,12.664 -30.91,12.664 -7.01,0 -13.15,-1.312 -18.42,-3.937 -5.29,-2.625 -9.69,-6.106 -13.25,-10.438 -3.56,-4.336 -6.32,-9.39 -8.28,-15.14 -1.94,-5.77 -3.04,-11.786 -3.27,-18.055 h 84.01" /><path
         id="path96"
         style="fill:#20201c;fill-opacity:1;fill-rule:nonzero;stroke:none"
         d="m 5578.06,459.328 c 0,-7.871 -1.46,-14.887 -4.36,-21.047 -2.91,-6.164 -7.04,-11.351 -12.41,-15.574 -5.36,-4.219 -11.75,-7.414 -19.16,-9.578 -7.42,-2.168 -15.56,-3.254 -24.46,-3.254 -5.47,0 -10.7,0.422 -15.67,1.289 -4.95,0.844 -9.4,1.941 -13.35,3.238 -3.92,1.313 -7.26,2.684 -9.99,4.11 -2.74,1.426 -4.75,2.715 -6,3.855 -1.26,1.141 -2.17,2.738 -2.74,4.789 -0.57,2.055 -0.85,4.852 -0.85,8.387 0,2.168 0.09,3.992 0.32,5.477 0.23,1.48 0.53,2.679 0.87,3.593 0.35,0.91 0.82,1.563 1.46,1.961 0.62,0.399 1.32,0.602 2.15,0.602 1.23,0 3.1,-0.762 5.54,-2.313 2.47,-1.531 5.48,-3.218 9.08,-5.043 3.58,-1.828 7.83,-3.515 12.76,-5.043 4.88,-1.55 10.53,-2.316 16.93,-2.316 4.78,0 9.12,0.516 13,1.543 3.87,1.027 7.23,2.531 10.08,4.539 2.85,1.984 5.07,4.527 6.6,7.605 1.55,3.082 2.3,6.731 2.3,10.954 0,4.336 -1.1,7.984 -3.33,10.949 -2.22,2.969 -5.16,5.594 -8.81,7.871 -3.65,2.285 -7.75,4.305 -12.32,6.082 -4.56,1.758 -9.26,3.617 -14.12,5.559 -4.84,1.937 -9.58,4.128 -14.19,6.578 -4.63,2.453 -8.76,5.453 -12.41,8.992 -3.65,3.535 -6.6,7.754 -8.81,12.66 -2.24,4.906 -3.35,10.781 -3.35,17.629 0,6.043 1.18,11.824 3.51,17.371 2.35,5.52 5.84,10.371 10.54,14.531 4.65,4.164 10.52,7.508 17.52,10.016 7.03,2.512 15.2,3.765 24.55,3.765 4.11,0 8.22,-0.339 12.32,-1.027 4.11,-0.683 7.83,-1.539 11.13,-2.566 3.31,-1.024 6.15,-2.133 8.47,-3.34 2.35,-1.188 4.1,-2.246 5.32,-3.164 1.18,-0.91 1.98,-1.707 2.39,-2.391 0.39,-0.687 0.69,-1.449 0.84,-2.316 0.19,-0.844 0.35,-1.906 0.53,-3.164 0.16,-1.25 0.25,-2.793 0.25,-4.617 0,-1.942 -0.09,-3.625 -0.25,-5.043 -0.18,-1.438 -0.46,-2.602 -0.87,-3.516 -0.39,-0.91 -0.89,-1.57 -1.43,-1.957 -0.6,-0.414 -1.21,-0.606 -1.9,-0.606 -1.02,0 -2.51,0.625 -4.45,1.879 -1.93,1.258 -4.45,2.59 -7.53,4.016 -3.08,1.43 -6.71,2.773 -10.86,4.027 -4.17,1.258 -8.94,1.887 -14.28,1.887 -4.79,0 -9.03,-0.551 -12.68,-1.621 -3.65,-1.098 -6.64,-2.637 -8.97,-4.633 -2.35,-1.996 -4.11,-4.355 -5.32,-7.094 -1.18,-2.738 -1.77,-5.707 -1.77,-8.898 0,-4.449 1.11,-8.191 3.42,-11.203 2.25,-3.035 5.22,-5.684 8.9,-7.965 3.62,-2.281 7.8,-4.336 12.48,-6.16 4.68,-1.824 9.44,-3.707 14.28,-5.645 4.86,-1.941 9.65,-4.109 14.37,-6.504 4.75,-2.394 8.92,-5.304 12.57,-8.726 3.65,-3.422 6.6,-7.528 8.83,-12.32 2.22,-4.793 3.33,-10.497 3.33,-17.11" /><path
         id="path98"
         style="fill:#20201c;fill-opacity:1;fill-rule:nonzero;stroke:none"
         d="m 5734.46,417.23 c 0,-1.367 -0.46,-2.394 -1.37,-3.078 -0.91,-0.683 -2.17,-1.199 -3.74,-1.539 -1.62,-0.343 -3.95,-0.515 -7.03,-0.515 -2.96,0 -5.34,0.172 -7.09,0.515 -1.78,0.34 -3.06,0.856 -3.86,1.539 -0.8,0.684 -1.19,1.711 -1.19,3.078 v 15.403 c -6.75,-7.188 -14.23,-12.778 -22.51,-16.77 -8.26,-3.992 -17.03,-5.988 -26.26,-5.988 -8.11,0 -15.43,1.059 -22,3.16 -6.55,2.11 -12.13,5.168 -16.77,9.16 -4.6,3.993 -8.21,8.899 -10.76,14.715 -2.58,5.817 -3.86,12.438 -3.86,19.848 0,8.672 1.76,16.199 5.29,22.586 3.54,6.39 8.63,11.695 15.24,15.918 6.62,4.218 14.72,7.379 24.3,9.488 9.58,2.113 20.38,3.176 32.33,3.176 h 21.22 v 11.976 c 0,5.93 -0.62,11.18 -1.87,15.743 -1.26,4.562 -3.29,8.347 -6.07,11.382 -2.81,3.012 -6.44,5.293 -10.86,6.848 -4.47,1.527 -9.95,2.301 -16.43,2.301 -6.98,0 -13.21,-0.828 -18.75,-2.485 -5.53,-1.656 -10.38,-3.48 -14.54,-5.476 -4.17,-1.996 -7.64,-3.82 -10.45,-5.477 -2.78,-1.652 -4.86,-2.472 -6.22,-2.472 -0.94,0 -1.74,0.226 -2.42,0.683 -0.68,0.457 -1.28,1.141 -1.78,2.051 -0.53,0.914 -0.89,2.078 -1.12,3.504 -0.23,1.426 -0.34,3 -0.34,4.711 0,2.851 0.2,5.098 0.59,6.765 0.41,1.641 1.37,3.219 2.92,4.7 1.53,1.484 4.2,3.215 7.94,5.226 3.79,1.981 8.1,3.805 13,5.473 4.91,1.641 10.27,3.012 16.11,4.109 5.8,1.071 11.69,1.617 17.62,1.617 11.06,0 20.46,-1.253 28.24,-3.765 7.74,-2.508 14.01,-6.192 18.8,-11.039 4.79,-4.852 8.28,-10.863 10.45,-18.047 2.17,-7.188 3.24,-15.574 3.24,-25.156 z m -28.06,70.333 h -24.11 c -7.77,0 -14.49,-0.665 -20.2,-1.977 -5.7,-1.309 -10.45,-3.238 -14.19,-5.816 -3.79,-2.559 -6.55,-5.637 -8.31,-9.239 -1.77,-3.582 -2.64,-7.726 -2.64,-12.402 0,-7.988 2.53,-14.352 7.59,-19.086 5.09,-4.734 12.19,-7.094 21.32,-7.094 7.41,0 14.28,1.883 20.62,5.645 6.32,3.765 12.96,9.527 19.92,17.285 v 32.684" /><path
         id="path100"
         style="fill:#20201c;fill-opacity:1;fill-rule:nonzero;stroke:none"
         d="m 5876.3,561.309 c 0,-2.508 -0.05,-4.618 -0.16,-6.329 -0.11,-1.71 -0.34,-3.058 -0.68,-4.027 -0.34,-0.969 -0.78,-1.711 -1.28,-2.215 -0.52,-0.523 -1.23,-0.777 -2.14,-0.777 -0.91,0 -2.04,0.254 -3.33,0.777 -1.33,0.504 -2.81,1.028 -4.46,1.532 -1.66,0.523 -3.51,1 -5.56,1.46 -2.05,0.454 -4.29,0.684 -6.66,0.684 -2.88,0 -5.66,-0.57 -8.4,-1.715 -2.74,-1.136 -5.61,-3.019 -8.65,-5.644 -3.01,-2.625 -6.18,-6.102 -9.49,-10.438 -3.3,-4.336 -6.95,-9.637 -10.95,-15.914 V 417.406 c 0,-0.914 -0.22,-1.691 -0.68,-2.32 -0.46,-0.625 -1.21,-1.16 -2.22,-1.617 -1.04,-0.457 -2.46,-0.801 -4.28,-1.028 -1.83,-0.226 -4.18,-0.343 -7.03,-0.343 -2.74,0 -5.02,0.117 -6.85,0.343 -1.82,0.227 -3.26,0.571 -4.35,1.028 -1.08,0.457 -1.83,0.992 -2.22,1.617 -0.41,0.629 -0.59,1.406 -0.59,2.32 V 571.41 c 0,0.906 0.16,1.672 0.5,2.313 0.34,0.617 1.03,1.187 2.06,1.711 1.02,0.5 2.32,0.843 3.92,1.027 1.59,0.16 3.72,0.25 6.34,0.25 2.51,0 4.59,-0.09 6.25,-0.25 1.65,-0.184 2.92,-0.527 3.84,-1.027 0.91,-0.524 1.57,-1.094 1.98,-1.711 0.39,-0.641 0.59,-1.407 0.59,-2.313 v -22.418 c 4.22,6.16 8.2,11.176 11.89,15.055 3.72,3.879 7.21,6.937 10.54,9.148 3.29,2.239 6.57,3.766 9.84,4.637 3.23,0.84 6.52,1.273 9.83,1.273 1.48,0 3.17,-0.089 5.04,-0.25 1.9,-0.183 3.85,-0.492 5.91,-0.945 2.05,-0.457 3.9,-0.972 5.56,-1.539 1.65,-0.57 2.84,-1.144 3.52,-1.715 0.68,-0.57 1.12,-1.117 1.37,-1.617 0.2,-0.527 0.41,-1.176 0.59,-1.976 0.16,-0.797 0.27,-1.973 0.34,-3.5 0.05,-1.551 0.07,-3.629 0.07,-6.254" /><path
         id="path102"
         style="fill:#20201c;fill-opacity:1;fill-rule:nonzero;stroke:none"
         d="m 5998.48,561.309 c 0,-2.508 -0.05,-4.618 -0.16,-6.329 -0.12,-1.71 -0.34,-3.058 -0.69,-4.027 -0.34,-0.969 -0.77,-1.711 -1.27,-2.215 -0.53,-0.523 -1.24,-0.777 -2.15,-0.777 -0.91,0 -2.03,0.254 -3.33,0.777 -1.33,0.504 -2.81,1.028 -4.45,1.532 -1.66,0.523 -3.52,1 -5.57,1.46 -2.05,0.454 -4.29,0.684 -6.66,0.684 -2.87,0 -5.66,-0.57 -8.4,-1.715 -2.73,-1.136 -5.6,-3.019 -8.64,-5.644 -3.01,-2.625 -6.18,-6.102 -9.49,-10.438 -3.31,-4.336 -6.96,-9.637 -10.95,-15.914 V 417.406 c 0,-0.914 -0.23,-1.691 -0.68,-2.32 -0.46,-0.625 -1.22,-1.16 -2.22,-1.617 -1.05,-0.457 -2.46,-0.801 -4.29,-1.028 -1.82,-0.226 -4.17,-0.343 -7.03,-0.343 -2.73,0 -5.02,0.117 -6.84,0.343 -1.83,0.227 -3.27,0.571 -4.36,1.028 -1.07,0.457 -1.82,0.992 -2.21,1.617 -0.41,0.629 -0.59,1.406 -0.59,2.32 V 571.41 c 0,0.906 0.15,1.672 0.5,2.313 0.34,0.617 1.02,1.187 2.05,1.711 1.02,0.5 2.33,0.843 3.92,1.027 1.6,0.16 3.72,0.25 6.35,0.25 2.51,0 4.58,-0.09 6.25,-0.25 1.64,-0.184 2.92,-0.527 3.83,-1.027 0.91,-0.524 1.58,-1.094 1.98,-1.711 0.39,-0.641 0.6,-1.407 0.6,-2.313 v -22.418 c 4.22,6.16 8.19,11.176 11.88,15.055 3.73,3.879 7.22,6.937 10.55,9.148 3.28,2.239 6.57,3.766 9.83,4.637 3.24,0.84 6.53,1.273 9.83,1.273 1.49,0 3.17,-0.089 5.05,-0.25 1.89,-0.183 3.85,-0.492 5.9,-0.945 2.06,-0.457 3.91,-0.972 5.57,-1.539 1.64,-0.57 2.83,-1.144 3.52,-1.715 0.68,-0.57 1.12,-1.117 1.36,-1.617 0.21,-0.527 0.42,-1.176 0.6,-1.976 0.16,-0.797 0.27,-1.973 0.34,-3.5 0.05,-1.551 0.07,-3.629 0.07,-6.254" /><path
         id="path104"
         style="fill:#20201c;fill-opacity:1;fill-rule:nonzero;stroke:none"
         d="m 6168.63,496.117 c 0,-12.551 -1.66,-24.105 -4.95,-34.644 -3.33,-10.567 -8.26,-19.657 -14.8,-27.301 -6.58,-7.641 -14.79,-13.609 -24.64,-17.875 -9.88,-4.289 -21.31,-6.422 -34.32,-6.422 -12.66,0 -23.71,1.883 -33.1,5.648 -9.43,3.762 -17.27,9.239 -23.55,16.426 -6.27,7.188 -10.95,15.914 -14.01,26.18 -3.1,10.266 -4.63,21.902 -4.63,34.906 0,12.551 1.62,24.094 4.89,34.645 3.23,10.55 8.14,19.656 14.71,27.3 6.55,7.641 14.74,13.575 24.55,17.797 9.81,4.219 21.26,6.328 34.4,6.328 12.64,0 23.68,-1.878 33.11,-5.644 9.4,-3.766 17.25,-9.242 23.52,-16.426 6.28,-7.187 10.98,-15.914 14.12,-26.183 3.13,-10.266 4.7,-21.844 4.7,-34.735 z m -29.27,-1.883 c 0,8.329 -0.77,16.2 -2.32,23.614 -1.56,7.414 -4.11,13.918 -7.67,19.507 -3.58,5.59 -8.42,10.016 -14.51,13.254 -6.12,3.266 -13.72,4.883 -22.79,4.883 -8.4,0 -15.63,-1.484 -21.68,-4.449 -6.05,-2.965 -11.02,-7.164 -14.94,-12.57 -3.91,-5.43 -6.8,-11.84 -8.72,-19.254 -1.89,-7.418 -2.83,-15.516 -2.83,-24.301 0,-8.441 0.75,-16.367 2.33,-23.781 1.55,-7.418 4.13,-13.899 7.75,-19.43 3.64,-5.531 8.49,-9.926 14.61,-13.164 6.09,-3.262 13.69,-4.883 22.79,-4.883 8.28,0 15.47,1.481 21.58,4.449 6.09,2.965 11.09,7.129 15.02,12.493 3.9,5.359 6.79,11.746 8.62,19.164 1.85,7.414 2.76,15.57 2.76,24.468" /><path
         id="path106"
         style="fill:#20201c;fill-opacity:1;fill-rule:nonzero;stroke:none"
         d="m 6238.45,417.406 c 0,-0.914 -0.23,-1.691 -0.68,-2.32 -0.46,-0.625 -1.22,-1.16 -2.22,-1.617 -1.05,-0.457 -2.46,-0.801 -4.29,-1.028 -1.82,-0.226 -4.17,-0.343 -7.03,-0.343 -2.73,0 -5.02,0.117 -6.84,0.343 -1.82,0.227 -3.26,0.571 -4.36,1.028 -1.07,0.457 -1.82,0.992 -2.21,1.617 -0.41,0.629 -0.59,1.406 -0.59,2.32 v 228.606 c 0,0.914 0.18,1.711 0.59,2.398 0.39,0.684 1.14,1.254 2.21,1.711 1.1,0.453 2.54,0.797 4.36,1.024 1.82,0.226 4.11,0.343 6.84,0.343 2.86,0 5.21,-0.117 7.03,-0.343 1.83,-0.227 3.24,-0.571 4.29,-1.024 1,-0.457 1.76,-1.027 2.22,-1.711 0.45,-0.687 0.68,-1.484 0.68,-2.398 V 417.406" /><path
         id="path108"
         style="fill:#20201c;fill-opacity:1;fill-rule:nonzero;stroke:none"
         d="m 6318.87,417.406 c 0,-0.914 -0.23,-1.691 -0.68,-2.32 -0.46,-0.625 -1.21,-1.16 -2.21,-1.617 -1.05,-0.457 -2.47,-0.801 -4.3,-1.028 -1.82,-0.226 -4.17,-0.343 -7.02,-0.343 -2.74,0 -5.02,0.117 -6.85,0.343 -1.82,0.227 -3.26,0.571 -4.36,1.028 -1.07,0.457 -1.82,0.992 -2.21,1.617 -0.41,0.629 -0.59,1.406 -0.59,2.32 v 228.606 c 0,0.914 0.18,1.711 0.59,2.398 0.39,0.684 1.14,1.254 2.21,1.711 1.1,0.453 2.54,0.797 4.36,1.024 1.83,0.226 4.11,0.343 6.85,0.343 2.85,0 5.2,-0.117 7.02,-0.343 1.83,-0.227 3.25,-0.571 4.3,-1.024 1,-0.457 1.75,-1.027 2.21,-1.711 0.45,-0.687 0.68,-1.484 0.68,-2.398 V 417.406" /><path
         id="path110"
         style="fill:#20201c;fill-opacity:1;fill-rule:nonzero;stroke:none"
         d="m 6514.28,496.117 c 0,-12.551 -1.66,-24.105 -4.95,-34.644 -3.33,-10.567 -8.26,-19.657 -14.81,-27.301 -6.57,-7.641 -14.78,-13.609 -24.64,-17.875 -9.88,-4.289 -21.31,-6.422 -34.31,-6.422 -12.66,0 -23.7,1.883 -33.11,5.648 -9.42,3.762 -17.26,9.239 -23.54,16.426 -6.27,7.188 -10.95,15.914 -14.01,26.18 -3.1,10.266 -4.63,21.902 -4.63,34.906 0,12.551 1.62,24.094 4.88,34.645 3.24,10.55 8.15,19.656 14.72,27.3 6.55,7.641 14.74,13.575 24.55,17.797 9.81,4.219 21.26,6.328 34.4,6.328 12.64,0 23.69,-1.878 33.11,-5.644 9.4,-3.766 17.25,-9.242 23.52,-16.426 6.28,-7.187 10.98,-15.914 14.12,-26.183 3.13,-10.266 4.7,-21.844 4.7,-34.735 z m -29.27,-1.883 c 0,8.329 -0.77,16.2 -2.33,23.614 -1.55,7.414 -4.1,13.918 -7.66,19.507 -3.58,5.59 -8.42,10.016 -14.51,13.254 -6.12,3.266 -13.71,4.883 -22.8,4.883 -8.39,0 -15.62,-1.484 -21.67,-4.449 -6.04,-2.965 -11.02,-7.164 -14.94,-12.57 -3.9,-5.43 -6.8,-11.84 -8.72,-19.254 -1.89,-7.418 -2.83,-15.516 -2.83,-24.301 0,-8.441 0.75,-16.367 2.33,-23.781 1.55,-7.418 4.13,-13.899 7.76,-19.43 3.63,-5.531 8.49,-9.926 14.6,-13.164 6.09,-3.262 13.69,-4.883 22.79,-4.883 8.28,0 15.47,1.481 21.58,4.449 6.1,2.965 11.09,7.129 15.02,12.493 3.9,5.359 6.8,11.746 8.62,19.164 1.85,7.414 2.76,15.57 2.76,24.468" /><path
         id="path112"
         style="fill:#20201c;fill-opacity:1;fill-rule:nonzero;stroke:none"
         d="m 6785.99,417.574 c 0,-0.91 -0.16,-1.711 -0.5,-2.394 -0.35,-0.684 -1.1,-1.254 -2.24,-1.711 -1.14,-0.457 -2.74,-0.801 -4.79,-1.028 -2.05,-0.226 -4.79,-0.343 -8.21,-0.343 -2.97,0 -5.39,0.117 -7.26,0.343 -1.89,0.227 -3.4,0.594 -4.54,1.118 -1.14,0.504 -2.03,1.222 -2.65,2.132 -0.64,0.914 -1.18,2.055 -1.62,3.422 l -20.37,52.192 c -2.4,5.933 -4.88,11.386 -7.44,16.336 -2.58,4.972 -5.63,9.238 -9.14,12.843 -3.57,3.582 -7.72,6.379 -12.51,8.375 -4.79,1.996 -10.56,3 -17.29,3 h -19.67 v -94.285 c 0,-0.91 -0.25,-1.711 -0.78,-2.394 -0.5,-0.684 -1.29,-1.231 -2.39,-1.621 -1.07,-0.411 -2.55,-0.739 -4.45,-1.024 -1.87,-0.285 -4.24,-0.437 -7.1,-0.437 -2.84,0 -5.22,0.152 -7.09,0.437 -1.9,0.285 -3.4,0.613 -4.54,1.024 -1.14,0.39 -1.94,0.937 -2.39,1.621 -0.46,0.683 -0.69,1.484 -0.69,2.394 V 622.57 c 0,4.446 1.16,7.551 3.51,9.328 2.33,1.758 4.82,2.649 7.44,2.649 h 47.05 c 5.58,0 10.24,-0.149 13.96,-0.434 3.69,-0.285 7.03,-0.593 9.99,-0.933 8.58,-1.485 16.13,-3.825 22.68,-7.016 6.57,-3.195 12.07,-7.246 16.52,-12.148 4.45,-4.911 7.78,-10.52 10.01,-16.864 2.21,-6.32 3.33,-13.312 3.33,-20.957 0,-7.41 -1,-14.062 -2.98,-19.925 -2.01,-5.887 -4.89,-11.079 -8.65,-15.582 -3.76,-4.508 -8.28,-8.411 -13.53,-11.719 -5.25,-3.305 -11.11,-6.102 -17.62,-8.383 3.66,-1.598 6.96,-3.629 9.93,-6.07 2.97,-2.465 5.73,-5.395 8.3,-8.817 2.56,-3.422 4.98,-7.359 7.28,-11.808 2.26,-4.446 4.55,-9.469 6.85,-15.055 l 19.85,-48.77 c 1.57,-4.105 2.6,-6.992 3.05,-8.636 0.46,-1.664 0.69,-2.942 0.69,-3.856 z m -44.31,155.543 c 0,8.668 -1.94,16.008 -5.82,21.981 -3.88,6.004 -10.38,10.3 -19.5,12.925 -2.86,0.801 -6.07,1.372 -9.68,1.711 -3.58,0.344 -8.3,0.516 -14.1,0.516 h -24.82 v -74.605 h 28.75 c 7.76,0 14.46,0.933 20.1,2.828 5.66,1.871 10.35,4.496 14.12,7.871 3.77,3.355 6.52,7.324 8.31,11.886 1.75,4.563 2.64,9.528 2.64,14.887" /><path
         id="path114"
         style="fill:#20201c;fill-opacity:1;fill-rule:nonzero;stroke:none"
         d="m 6951.54,501.078 c 0,-4.449 -1.12,-7.621 -3.36,-9.488 -2.23,-1.895 -4.79,-2.832 -7.66,-2.832 H 6839.1 c 0,-8.555 0.87,-16.254 2.58,-23.102 1.71,-6.843 4.59,-12.715 8.6,-17.621 4.02,-4.906 9.22,-8.672 15.65,-11.293 6.42,-2.625 14.27,-3.941 23.55,-3.941 7.34,0 13.87,0.605 19.6,1.793 5.75,1.211 10.7,2.543 14.87,4.027 4.2,1.481 7.62,2.82 10.32,4.027 2.71,1.188 4.74,1.793 6.11,1.793 0.8,0 1.53,-0.207 2.14,-0.605 0.64,-0.398 1.12,-0.996 1.46,-1.789 0.35,-0.801 0.62,-1.918 0.78,-3.344 0.18,-1.426 0.25,-3.16 0.25,-5.215 0,-1.48 -0.05,-2.769 -0.16,-3.843 -0.11,-1.094 -0.25,-2.055 -0.43,-2.922 -0.16,-0.84 -0.46,-1.618 -0.85,-2.301 -0.41,-0.688 -0.91,-1.348 -1.55,-1.965 -0.61,-0.641 -2.48,-1.664 -5.54,-3.078 -3.1,-1.438 -7.1,-2.832 -12,-4.199 -4.91,-1.367 -10.57,-2.59 -17.02,-3.672 -6.44,-1.086 -13.33,-1.633 -20.63,-1.633 -12.64,0 -23.75,1.77 -33.26,5.305 -9.54,3.535 -17.55,8.785 -24.05,15.742 -6.5,6.957 -11.41,15.683 -14.72,26.18 -3.3,10.496 -4.94,22.703 -4.94,36.621 0,13.23 1.68,25.117 5.1,35.668 3.43,10.554 8.38,19.507 14.81,26.879 6.46,7.347 14.24,13.003 23.36,16.925 9.13,3.95 19.33,5.91 30.64,5.91 12.07,0 22.39,-1.937 30.87,-5.816 8.52,-3.879 15.5,-9.105 20.97,-15.652 5.48,-6.571 9.49,-14.27 12.07,-23.114 2.55,-8.839 3.86,-18.273 3.86,-28.312 z m -28.43,8.387 c 0.36,14.828 -2.95,26.465 -9.88,34.906 -6.96,8.442 -17.25,12.664 -30.91,12.664 -7.01,0 -13.15,-1.312 -18.42,-3.937 -5.29,-2.625 -9.69,-6.106 -13.26,-10.438 -3.55,-4.336 -6.31,-9.39 -8.27,-15.14 -1.94,-5.77 -3.04,-11.786 -3.27,-18.055 h 84.01" /><path
         id="path116"
         style="fill:#20201c;fill-opacity:1;fill-rule:nonzero;stroke:none"
         d="m 7123.15,564.391 c 0,-3.993 -0.54,-6.879 -1.64,-8.645 -1.07,-1.769 -2.47,-2.648 -4.2,-2.648 h -22.06 c 3.99,-4.106 6.77,-8.645 8.38,-13.602 1.59,-4.973 2.41,-10.129 2.41,-15.488 0,-8.899 -1.44,-16.77 -4.29,-23.613 -2.85,-6.844 -6.93,-12.641 -12.23,-17.364 -5.32,-4.746 -11.61,-8.359 -18.91,-10.871 -7.3,-2.508 -15.4,-3.765 -24.3,-3.765 -6.27,0 -12.23,0.82 -17.89,2.476 -5.63,1.652 -9.99,3.742 -13.09,6.25 -2.06,-2.051 -3.72,-4.391 -5.04,-7.016 -1.31,-2.621 -1.97,-5.644 -1.97,-9.066 0,-3.996 1.85,-7.305 5.57,-9.926 3.7,-2.625 8.65,-4.05 14.81,-4.277 l 40.2,-1.711 c 7.64,-0.23 14.65,-1.289 21.03,-3.16 6.39,-1.895 11.94,-4.574 16.61,-8.055 4.68,-3.476 8.33,-7.754 10.95,-12.82 2.63,-5.09 3.93,-10.988 3.93,-17.719 0,-7.074 -1.49,-13.801 -4.43,-20.191 -2.99,-6.387 -7.51,-12 -13.62,-16.848 -6.09,-4.848 -13.89,-8.672 -23.34,-11.477 -9.49,-2.781 -20.67,-4.187 -33.53,-4.187 -12.46,0 -23.03,1.062 -31.77,3.164 -8.71,2.117 -15.87,4.992 -21.46,8.645 -5.59,3.648 -9.65,8.019 -12.16,13.093 -2.52,5.078 -3.75,10.578 -3.75,16.508 0,3.766 0.44,7.418 1.37,10.953 0.89,3.535 2.31,6.899 4.18,10.098 1.89,3.191 4.22,6.25 7.02,9.148 2.79,2.922 6.01,5.793 9.65,8.645 -5.58,2.851 -9.71,6.445 -12.38,10.781 -2.7,4.336 -4.04,9.008 -4.04,14.031 0,6.957 1.43,13.176 4.29,18.649 2.85,5.476 6.39,10.383 10.6,14.719 -3.53,4.222 -6.31,8.988 -8.37,14.281 -2.05,5.316 -3.1,11.726 -3.1,19.258 0,8.781 1.49,16.656 4.47,23.613 2.95,6.957 7.06,12.832 12.32,17.625 5.23,4.789 11.55,8.473 18.9,11.031 7.36,2.578 15.37,3.856 24.04,3.856 4.68,0 9.03,-0.25 13.1,-0.778 4.03,-0.5 7.82,-1.218 11.36,-2.133 h 46.54 c 1.94,0 3.4,-0.945 4.38,-2.816 0.96,-1.894 1.46,-4.769 1.46,-8.648 z M 7093.2,401.836 c 0,6.613 -2.72,11.723 -8.13,15.305 -5.43,3.605 -12.75,5.511 -21.99,5.738 l -39.86,1.367 c -3.67,-2.848 -6.66,-5.555 -8.99,-8.129 -2.35,-2.558 -4.19,-5.012 -5.57,-7.347 -1.36,-2.34 -2.3,-4.657 -2.82,-6.934 -0.51,-2.285 -0.78,-4.625 -0.78,-7.02 0,-7.414 3.79,-13.027 11.32,-16.847 7.53,-3.824 18,-5.739 31.48,-5.739 8.53,0 15.7,0.833 21.47,2.477 5.75,1.664 10.4,3.856 13.94,6.594 3.53,2.734 6.07,5.871 7.62,9.41 1.53,3.535 2.31,7.242 2.31,11.125 z m -14.22,122 c 0,10.496 -2.87,18.672 -8.62,24.562 -5.77,5.864 -13.97,8.809 -24.55,8.809 -5.48,0 -10.24,-0.914 -14.31,-2.738 -4.04,-1.828 -7.41,-4.34 -10.08,-7.531 -2.69,-3.196 -4.68,-6.879 -6,-11.043 -1.3,-4.165 -1.96,-8.524 -1.96,-13.082 0,-10.157 2.87,-18.141 8.64,-23.961 5.75,-5.817 13.83,-8.723 24.21,-8.723 5.59,0 10.45,0.879 14.56,2.644 4.1,1.77 7.48,4.223 10.17,7.372 2.67,3.125 4.68,6.75 5.98,10.859 1.32,4.105 1.96,8.383 1.96,12.832" /><path
         id="path118"
         style="fill:#20201c;fill-opacity:1;fill-rule:nonzero;stroke:none"
         d="m 7190.91,623.422 c 0,-6.613 -1.28,-11.117 -3.78,-13.516 -2.51,-2.394 -7.12,-3.593 -13.85,-3.593 -6.62,0 -11.16,1.164 -13.6,3.503 -2.47,2.34 -3.67,6.766 -3.67,13.27 0,6.613 1.23,11.121 3.74,13.516 2.51,2.394 7.14,3.593 13.87,3.593 6.62,0 11.16,-1.175 13.6,-3.504 2.46,-2.351 3.69,-6.765 3.69,-13.269 z m -3.26,-206.016 c 0,-0.914 -0.23,-1.691 -0.69,-2.32 -0.45,-0.625 -1.2,-1.16 -2.21,-1.617 -1.05,-0.457 -2.46,-0.801 -4.29,-1.028 -1.82,-0.226 -4.17,-0.343 -7.02,-0.343 -2.74,0 -5.02,0.117 -6.85,0.343 -1.82,0.227 -3.26,0.571 -4.36,1.028 -1.07,0.457 -1.82,0.992 -2.21,1.617 -0.41,0.629 -0.59,1.406 -0.59,2.32 V 571.41 c 0,0.793 0.18,1.535 0.59,2.223 0.39,0.683 1.14,1.254 2.21,1.707 1.1,0.461 2.54,0.801 4.36,1.031 1.83,0.227 4.11,0.34 6.85,0.34 2.85,0 5.2,-0.113 7.02,-0.34 1.83,-0.23 3.24,-0.57 4.29,-1.031 1.01,-0.453 1.76,-1.024 2.21,-1.707 0.46,-0.688 0.69,-1.43 0.69,-2.223 V 417.406" /><path
         id="path120"
         style="fill:#20201c;fill-opacity:1;fill-rule:nonzero;stroke:none"
         d="m 7383.06,496.117 c 0,-12.551 -1.66,-24.105 -4.95,-34.644 -3.33,-10.567 -8.26,-19.657 -14.81,-27.301 -6.57,-7.641 -14.78,-13.609 -24.64,-17.875 -9.87,-4.289 -21.3,-6.422 -34.31,-6.422 -12.66,0 -23.71,1.883 -33.1,5.648 -9.43,3.762 -17.28,9.239 -23.55,16.426 -6.27,7.188 -10.95,15.914 -14.01,26.18 -3.1,10.266 -4.63,21.902 -4.63,34.906 0,12.551 1.62,24.094 4.89,34.645 3.23,10.55 8.14,19.656 14.71,27.3 6.55,7.641 14.74,13.575 24.55,17.797 9.81,4.219 21.26,6.328 34.4,6.328 12.64,0 23.68,-1.878 33.1,-5.644 9.41,-3.766 17.25,-9.242 23.53,-16.426 6.27,-7.187 10.97,-15.914 14.12,-26.183 3.13,-10.266 4.7,-21.844 4.7,-34.735 z m -29.27,-1.883 c 0,8.329 -0.77,16.2 -2.33,23.614 -1.55,7.414 -4.1,13.918 -7.66,19.507 -3.59,5.59 -8.42,10.016 -14.51,13.254 -6.12,3.266 -13.72,4.883 -22.79,4.883 -8.4,0 -15.64,-1.484 -21.68,-4.449 -6.05,-2.965 -11.02,-7.164 -14.94,-12.57 -3.9,-5.43 -6.8,-11.84 -8.72,-19.254 -1.89,-7.418 -2.83,-15.516 -2.83,-24.301 0,-8.441 0.76,-16.367 2.33,-23.781 1.55,-7.418 4.13,-13.899 7.76,-19.43 3.62,-5.531 8.48,-9.926 14.6,-13.164 6.09,-3.262 13.69,-4.883 22.79,-4.883 8.28,0 15.47,1.481 21.58,4.449 6.09,2.965 11.09,7.129 15.02,12.493 3.9,5.359 6.79,11.746 8.62,19.164 1.85,7.414 2.76,15.57 2.76,24.468" /><path
         id="path122"
         style="fill:#20201c;fill-opacity:1;fill-rule:nonzero;stroke:none"
         d="m 7557.26,417.406 c 0,-0.914 -0.23,-1.691 -0.69,-2.32 -0.46,-0.625 -1.18,-1.16 -2.23,-1.617 -1.01,-0.457 -2.45,-0.801 -4.27,-1.028 -1.83,-0.226 -4.11,-0.343 -6.84,-0.343 -2.86,0 -5.21,0.117 -7.01,0.343 -1.84,0.227 -3.26,0.571 -4.29,1.028 -1.03,0.457 -1.78,0.992 -2.23,1.617 -0.46,0.629 -0.69,1.406 -0.69,2.32 v 90.176 c 0,8.781 -0.69,15.856 -2.05,21.215 -1.37,5.363 -3.36,9.984 -5.98,13.863 -2.62,3.875 -6.02,6.844 -10.18,8.899 -4.17,2.05 -8.98,3.078 -14.46,3.078 -7.07,0 -14.14,-2.508 -21.22,-7.528 -7.07,-5.019 -14.49,-12.379 -22.24,-22.074 V 417.406 c 0,-0.914 -0.23,-1.691 -0.69,-2.32 -0.45,-0.625 -1.21,-1.16 -2.21,-1.617 -1.05,-0.457 -2.46,-0.801 -4.29,-1.028 -1.82,-0.226 -4.17,-0.343 -7.03,-0.343 -2.73,0 -5.02,0.117 -6.84,0.343 -1.83,0.227 -3.26,0.571 -4.36,1.028 -1.07,0.457 -1.82,0.992 -2.21,1.617 -0.41,0.629 -0.6,1.406 -0.6,2.32 V 571.41 c 0,0.906 0.16,1.672 0.51,2.313 0.34,0.617 1.02,1.187 2.05,1.711 1.02,0.5 2.33,0.843 3.92,1.027 1.6,0.16 3.72,0.25 6.35,0.25 2.5,0 4.58,-0.09 6.25,-0.25 1.64,-0.184 2.92,-0.527 3.83,-1.027 0.91,-0.524 1.57,-1.094 1.99,-1.711 0.38,-0.641 0.59,-1.407 0.59,-2.313 v -20.367 c 8.67,9.695 17.31,16.793 25.92,21.309 8.62,4.496 17.32,6.753 26.1,6.753 10.26,0 18.91,-1.746 25.91,-5.222 7.03,-3.481 12.69,-8.121 17.05,-13.942 4.31,-5.816 7.44,-12.64 9.31,-20.445 1.89,-7.82 2.83,-17.199 2.83,-28.148 v -93.942" /><path
         id="path124"
         style="fill:#20201c;fill-opacity:1;fill-rule:nonzero;stroke:none"
         d="m 7724.77,417.23 c 0,-1.367 -0.46,-2.394 -1.37,-3.078 -0.92,-0.683 -2.17,-1.199 -3.75,-1.539 -1.61,-0.343 -3.94,-0.515 -7.02,-0.515 -2.97,0 -5.34,0.172 -7.1,0.515 -1.78,0.34 -3.05,0.856 -3.85,1.539 -0.8,0.684 -1.19,1.711 -1.19,3.078 v 15.403 c -6.75,-7.188 -14.24,-12.778 -22.52,-16.77 -8.26,-3.992 -17.02,-5.988 -26.26,-5.988 -8.1,0 -15.42,1.059 -21.99,3.16 -6.55,2.11 -12.14,5.168 -16.77,9.16 -4.61,3.993 -8.22,8.899 -10.77,14.715 -2.58,5.817 -3.86,12.438 -3.86,19.848 0,8.672 1.76,16.199 5.3,22.586 3.53,6.39 8.62,11.695 15.24,15.918 6.61,4.218 14.71,7.379 24.3,9.488 9.58,2.113 20.37,3.176 32.32,3.176 h 21.22 v 11.976 c 0,5.93 -0.61,11.18 -1.87,15.743 -1.25,4.562 -3.28,8.347 -6.07,11.382 -2.8,3.012 -6.43,5.293 -10.86,6.848 -4.47,1.527 -9.95,2.301 -16.42,2.301 -6.98,0 -13.21,-0.828 -18.76,-2.485 -5.52,-1.656 -10.38,-3.48 -14.53,-5.476 -4.17,-1.996 -7.64,-3.82 -10.45,-5.477 -2.78,-1.652 -4.86,-2.472 -6.23,-2.472 -0.93,0 -1.73,0.226 -2.42,0.683 -0.68,0.457 -1.28,1.141 -1.78,2.051 -0.52,0.914 -0.88,2.078 -1.11,3.504 -0.24,1.426 -0.35,3 -0.35,4.711 0,2.851 0.21,5.098 0.6,6.765 0.41,1.641 1.36,3.219 2.92,4.7 1.53,1.484 4.19,3.215 7.93,5.226 3.79,1.981 8.11,3.805 13.01,5.473 4.9,1.641 10.27,3.012 16.11,4.109 5.79,1.071 11.68,1.617 17.61,1.617 11.07,0 20.47,-1.253 28.25,-3.765 7.73,-2.508 14.01,-6.192 18.8,-11.039 4.79,-4.852 8.28,-10.863 10.44,-18.047 2.18,-7.188 3.25,-15.574 3.25,-25.156 z m -28.07,70.333 h -24.11 c -7.76,0 -14.49,-0.665 -20.2,-1.977 -5.7,-1.309 -10.44,-3.238 -14.19,-5.816 -3.78,-2.559 -6.54,-5.637 -8.3,-9.239 -1.78,-3.582 -2.65,-7.726 -2.65,-12.402 0,-7.988 2.54,-14.352 7.6,-19.086 5.09,-4.734 12.18,-7.094 21.31,-7.094 7.41,0 14.28,1.883 20.63,5.645 6.32,3.765 12.96,9.527 19.91,17.285 v 32.684" /><path
         id="path126"
         style="fill:#20201c;fill-opacity:1;fill-rule:nonzero;stroke:none"
         d="m 7804.87,417.406 c 0,-0.914 -0.23,-1.691 -0.69,-2.32 -0.45,-0.625 -1.21,-1.16 -2.21,-1.617 -1.05,-0.457 -2.46,-0.801 -4.29,-1.028 -1.82,-0.226 -4.17,-0.343 -7.02,-0.343 -2.75,0 -5.02,0.117 -6.85,0.343 -1.83,0.227 -3.26,0.571 -4.36,1.028 -1.07,0.457 -1.82,0.992 -2.21,1.617 -0.41,0.629 -0.59,1.406 -0.59,2.32 v 228.606 c 0,0.914 0.18,1.711 0.59,2.398 0.39,0.684 1.14,1.254 2.21,1.711 1.1,0.453 2.53,0.797 4.36,1.024 1.83,0.226 4.1,0.343 6.85,0.343 2.85,0 5.2,-0.117 7.02,-0.343 1.83,-0.227 3.24,-0.571 4.29,-1.024 1,-0.457 1.76,-1.027 2.21,-1.711 0.46,-0.687 0.69,-1.484 0.69,-2.398 V 417.406" /></g></g></svg>