<?xml version="1.0" standalone="no"?>
<!DOCTYPE svg PUBLIC "-//W3C//DTD SVG 20010904//EN"
 "http://www.w3.org/TR/2001/REC-SVG-20010904/DTD/svg10.dtd">
<svg version="1.0" xmlns="http://www.w3.org/2000/svg"
 width="118.000000pt" height="109.000000pt" viewBox="0 0 118.000000 109.000000"
 preserveAspectRatio="xMidYMid meet">
<metadata>
Created by potrace 1.15, written by Peter Selinger 2001-2017
</metadata>
<g transform="translate(0.000000,109.000000) scale(0.100000,-0.100000)"
fill="#000000" stroke="none">
<path d="M0 545 l0 -545 590 0 590 0 0 545 0 545 -590 0 -590 0 0 -545z m770
325 c74 -22 167 -79 222 -136 40 -43 108 -142 108 -159 0 -6 -35 24 -78 66
-123 121 -251 173 -423 171 -160 -2 -309 -70 -424 -193 -30 -33 -55 -57 -55
-52 0 4 13 31 29 58 128 220 372 317 621 245z m-35 -145 c58 -16 150 -79 187
-127 28 -36 71 -118 63 -118 -3 0 -21 18 -41 39 -113 126 -310 176 -473 121
-77 -26 -160 -78 -202 -129 -27 -31 -30 -33 -23 -11 20 69 107 161 193 204 89
45 183 52 296 21z m-55 -347 c0 -5 -32 -8 -71 -8 -56 0 -70 3 -66 14 3 7 15
46 27 87 41 138 39 137 76 19 19 -58 34 -108 34 -112z"/>
</g>
</svg>
